<svg width="99" height="30" viewBox="0 0 99 30" fill="none" xmlns="http://www.w3.org/2000/svg">
<path fill-rule="evenodd" clip-rule="evenodd" d="M15.1415 0C23.5111 0 30.2812 6.70929 30.2812 14.9996C30.2812 23.2886 23.5107 30 15.1411 30C6.77151 30 8.29133e-05 23.2916 8.29133e-05 14.9991C-0.00732336 12.8008 0.481537 10.6291 1.43023 8.646C1.50651 9.14829 1.64751 9.63857 1.85023 10.104C2.17841 10.8841 2.6571 11.5919 3.25894 12.1869C3.86408 12.7824 4.57783 13.2564 5.36151 13.5831C6.1458 13.9024 6.9858 14.0653 7.83266 14.0623H9.47323V10.875H7.83266C7.41342 10.8816 6.99773 10.7972 6.61423 10.6277C5.8209 10.3058 5.18625 9.68437 4.84765 8.898C4.69099 8.52102 4.60722 8.11776 4.6008 7.70957V7.66757C4.59549 7.259 4.67975 6.85423 4.84765 6.48171C5.00843 6.09196 5.24434 5.73765 5.54194 5.439C5.83859 5.13731 6.1967 4.903 6.59194 4.752C6.98048 4.59589 7.39428 4.51209 7.81294 4.50471C8.23179 4.50077 8.64679 4.58503 9.03094 4.752C9.42308 4.91057 9.78094 5.14371 10.0835 5.439C10.3865 5.73317 10.6233 6.08867 10.7778 6.48171C10.9338 6.86571 11.0174 7.27543 11.0251 7.69029V17.2723C11.0272 18.1098 11.1951 18.9386 11.5192 19.7109C11.8482 20.491 12.3276 21.1988 12.9301 21.7937C13.53 22.3858 14.2379 22.8571 15.0155 23.1823C16.5932 23.8216 18.3578 23.8216 19.9355 23.1823C20.7184 22.8542 21.4319 22.3806 22.0381 21.7864C22.6378 21.1897 23.116 20.4824 23.4464 19.7036C23.7319 19.0358 23.8991 18.3235 23.9405 17.5984H23.9602V17.0571C23.936 16.2915 23.7684 15.5372 23.4661 14.8333C23.1321 14.0558 22.6533 13.349 22.0552 12.7504C21.451 12.1538 20.737 11.6796 19.9527 11.3541C19.1725 11.0346 18.337 10.8718 17.4939 10.875H15.8559V14.0623H17.4965C17.9156 14.0557 18.3311 14.1401 18.7145 14.3096C19.1118 14.4686 19.4706 14.7104 19.7671 15.0189C20.07 15.3163 20.3126 15.6695 20.4815 16.059C20.6379 16.4361 20.7219 16.839 20.7284 17.2474V17.2894C20.7337 17.6981 20.6495 18.1031 20.4815 18.4757C20.3214 18.8658 20.0854 19.2202 19.7872 19.5184C19.4905 19.82 19.1324 20.0541 18.7372 20.205C18.3486 20.3612 17.9346 20.445 17.5158 20.4523C17.097 20.4554 16.6822 20.3712 16.2978 20.205C15.9056 20.0468 15.5481 19.8136 15.2452 19.5184C14.9415 19.2249 14.7047 18.8692 14.5509 18.4757C14.3951 18.0915 14.3114 17.6818 14.3041 17.2671V7.68729C14.3059 6.85058 14.142 6.0218 13.8219 5.24871C13.4923 4.46888 13.013 3.76125 12.4111 3.16586C11.8068 2.56921 11.0928 2.09507 10.3085 1.76957C9.85577 1.58426 9.38325 1.45153 8.90023 1.374C10.8516 0.4551 12.9842 -0.0142847 15.1411 0.000428571L15.1415 0Z" fill="white"/>
<path fill-rule="evenodd" clip-rule="evenodd" d="M88.9315 14.2677C88.9315 16.1852 90.1671 17.6012 92.1068 17.6012C94.0465 17.6012 95.2821 16.1852 95.2821 14.2677C95.2821 12.3503 94.0465 10.9347 92.1068 10.9347C90.1671 10.9347 88.9315 12.3726 88.9315 14.2677ZM85.7194 14.2677C85.7194 17.7692 88.2227 20.3933 92.1437 20.3933C96.0651 20.3933 98.5684 17.7692 98.5684 14.2677C98.5684 10.7663 96.0677 8.14258 92.1437 8.14258C88.2201 8.14258 85.7142 10.7689 85.7142 14.2677H85.7194V14.2677Z" fill="white"/>
<path d="M68.0966 17.7464C69.7989 17.7464 71.1874 16.642 71.1874 14.413C71.1874 12.3078 69.705 11.0997 67.8446 11.0997C67.0847 11.0787 66.3365 11.2898 65.6996 11.7048V16.6565C66.0054 16.9899 66.3753 17.2582 66.7872 17.4454C67.199 17.6327 67.6443 17.735 68.0966 17.7464V17.7464ZM62.6927 9.62154C63.765 8.95425 65.7639 8.32897 67.6963 8.32897C71.8402 8.32897 74.427 10.7877 74.427 14.6204C74.427 18.0575 72.3244 20.5505 68.8329 20.5505C67.7117 20.563 66.6179 20.2042 65.7219 19.5301V25.4603H62.6927V9.62154ZM41.8329 11.1215C43.5352 11.1215 44.9242 12.2264 44.9242 14.455C44.9242 16.558 43.4413 17.7661 41.5809 17.7661C40.8212 17.788 40.0729 17.5776 39.4359 17.1631V12.2217C39.7382 11.8832 40.1071 11.6108 40.5196 11.4216C40.932 11.2324 41.3791 11.1304 41.8329 11.122V11.1215ZM36.4286 19.276C37.5013 19.9428 39.498 20.5681 41.4326 20.5681C45.5764 20.5681 48.1633 18.0974 48.1633 14.2771C48.1633 10.84 46.0607 8.34697 42.5692 8.34697C41.4474 8.33494 40.353 8.69365 39.456 9.3674V4.28711H36.4513V19.2657L36.429 19.276H36.4286ZM55.5022 10.8078C57.2319 10.8078 58.2202 11.9127 58.1932 13.3505H52.4186C52.7246 11.8283 53.6936 10.8078 55.5022 10.8078V10.8078ZM59.1592 17.1507C58.2285 17.7596 57.138 18.0788 56.0259 18.0678C54.1779 18.0678 52.7666 17.1113 52.4949 15.3494H61.0097C61.1533 14.8274 61.2176 14.287 61.2 13.7457C61.2 10.4744 58.6552 8.32725 55.6282 8.32725C51.7586 8.32725 49.404 11.0573 49.404 14.4528C49.404 18.1415 51.9489 20.578 55.7319 20.578C57.3724 20.578 59.0554 20.1211 60.2314 19.1204L59.1592 17.1507V17.1507ZM76.1396 20.2668H79.1464V11.5788H84.15V8.59897H81.9262C81.3041 8.60201 80.6993 8.80386 80.2002 9.17504C79.701 9.54622 79.3336 10.0673 79.1516 10.6621V8.57925H76.1396V20.2664V20.2668Z" fill="white"/>
</svg>
