<svg width="33" height="30" viewBox="0 0 33 30" fill="none" xmlns="http://www.w3.org/2000/svg">
<g clip-path="url(#clip0_3558_32392)">
<path d="M5.2901 23.1282C4.79057 22.3666 3.90616 22.0882 3.01356 22.0882C1.74427 22.0882 0.327576 22.727 0.327576 24.7087C0.327576 26.6904 1.74427 27.3292 3.01356 27.3292C3.90616 27.3292 4.79057 27.0507 5.2901 26.2892V27.1654H7.17356V20.6142H5.2901V23.1282ZM3.79151 25.7733C2.79246 25.7733 2.29293 25.4293 2.29293 24.7087C2.29293 23.9881 2.79246 23.6441 3.79151 23.6441C4.79057 23.6441 5.2901 23.9881 5.2901 24.7087C5.2901 25.4293 4.79057 25.7733 3.79151 25.7733ZM8.15254 21.7607H10.036V20.6142H8.15254V21.7607ZM8.15254 27.1654H10.036V22.252H8.15254V27.1654ZM10.7717 25.5194C10.7717 26.8951 12.1639 27.3292 14.2684 27.3292C16.1273 27.3292 17.4376 27.0098 17.4376 25.5767C17.4376 24.2747 16.2829 24.1846 14.3503 24.0208C13.0647 23.9144 12.8599 23.8734 12.8599 23.6032C12.8599 23.3657 13.1466 23.2347 14.0392 23.2347C14.899 23.2347 15.3084 23.3657 15.3084 23.7424H17.2738C17.1919 22.4895 15.7998 22.0882 14.0801 22.0882C12.3686 22.0882 10.8946 22.4076 10.8946 23.7342C10.8946 24.8807 11.8855 25.0608 13.9409 25.2082C15.202 25.2983 15.4722 25.3147 15.4722 25.6668C15.4722 25.9698 15.2839 26.1008 14.1866 26.1008C12.9992 26.1008 12.7371 25.9125 12.7371 25.5194H10.7717ZM17.9691 24.7087C17.9691 26.4447 19.222 27.3292 21.474 27.3292C23.4966 27.3292 24.7168 26.6249 24.9625 25.1591H23.0381C22.8825 25.5767 22.4239 25.8551 21.474 25.8551C20.4176 25.8551 19.8525 25.5112 19.8525 24.7087C19.8525 23.9062 20.4176 23.5622 21.474 23.5622C22.4239 23.5622 22.8825 23.8407 23.0381 24.2583H24.9625C24.7168 22.7925 23.4966 22.0882 21.474 22.0882C19.222 22.0882 17.9691 22.9726 17.9691 24.7087ZM29.1192 27.3292C31.453 27.3292 32.624 26.3383 32.624 24.7087C32.624 23.0791 31.453 22.0882 29.1192 22.0882C26.7853 22.0882 25.6143 23.0791 25.6143 24.7087C25.6143 26.3383 26.7853 27.3292 29.1192 27.3292ZM29.1192 25.8551C28.0792 25.8551 27.5796 25.5112 27.5796 24.7087C27.5796 23.9062 28.0792 23.5622 29.1192 23.5622C30.1592 23.5622 30.6587 23.9062 30.6587 24.7087C30.6587 25.5112 30.1592 25.8551 29.1192 25.8551Z" fill="white"/>
<path d="M16.4362 9.07513C16.1757 8.36072 15.6188 7.80297 14.9233 7.55897C15.2685 7.42847 15.5819 7.22577 15.8428 6.96437C16.1037 6.70296 16.306 6.38885 16.4362 6.04297C16.6274 6.70506 17.236 7.24544 17.9493 7.55897C17.598 7.67873 17.2789 7.87772 17.0166 8.14064C16.7543 8.40347 16.5557 8.72324 16.4362 9.07513Z" fill="white"/>
<path d="M12.3001 3.41589C12.718 2.9971 12.7882 2.38852 12.457 2.05657C12.1257 1.72464 11.5184 1.79504 11.1005 2.21383C10.6826 2.6326 10.6123 3.24119 10.9436 3.57313C11.2749 3.90508 11.8822 3.83468 12.3001 3.41589Z" fill="white"/>
<path d="M21.7686 12.9042C22.1866 12.4854 22.2568 11.8768 21.9256 11.5449C21.5943 11.213 20.987 11.2834 20.5691 11.7022C20.1511 12.1209 20.0809 12.7295 20.4122 13.0615C20.7434 13.3934 21.3508 13.3231 21.7686 12.9042Z" fill="white"/>
<path d="M14.5823 5.70308C15.1735 5.11061 15.2593 4.236 14.7739 3.74959C14.2885 3.26317 13.4157 3.34916 12.8244 3.94163C12.2332 4.5341 12.1474 5.40872 12.6328 5.89513C13.1182 6.38153 13.991 6.29556 14.5823 5.70308Z" fill="white"/>
<path d="M20.0431 11.1749C20.6343 10.5824 20.7201 9.7078 20.2347 9.22142C19.7493 8.73496 18.8765 8.82095 18.2853 9.41347C17.694 10.0059 17.6082 10.8806 18.0936 11.3669C18.579 11.8534 19.4518 11.7674 20.0431 11.1749Z" fill="white"/>
<path d="M21.9256 3.57325C22.2568 3.24131 22.1866 2.63273 21.7686 2.21394C21.3507 1.79516 20.7434 1.72476 20.4121 2.0567C20.0809 2.38864 20.1511 2.99722 20.569 3.41601C20.987 3.8348 21.5943 3.9052 21.9256 3.57325Z" fill="white"/>
<path d="M12.4571 13.0614C12.7883 12.7295 12.718 12.1209 12.3001 11.7021C11.8822 11.2833 11.2749 11.2129 10.9436 11.5448C10.6123 11.8768 10.6826 12.4854 11.1005 12.9042C11.5184 13.3229 12.1258 13.3933 12.4571 13.0614Z" fill="white"/>
<path d="M20.2363 5.89506C20.7217 5.40865 20.6359 4.53404 20.0446 3.94157C19.4534 3.34909 18.5806 3.26311 18.0952 3.74952C17.6098 4.23593 17.6956 5.11055 18.2868 5.70302C18.8781 6.29549 19.7509 6.38148 20.2363 5.89506Z" fill="white"/>
<path d="M14.7758 11.367C15.2612 10.8806 15.1754 10.006 14.5842 9.41356C13.9929 8.82104 13.1201 8.73513 12.6347 9.22151C12.1493 9.70789 12.235 10.5825 12.8263 11.175C13.4176 11.7675 14.2904 11.8535 14.7758 11.367Z" fill="white"/>
<path d="M16.4347 1.69998C17.0257 1.69998 17.5049 1.31943 17.5049 0.849992C17.5049 0.380554 17.0257 0 16.4347 0C15.8437 0 15.3646 0.380554 15.3646 0.849992C15.3646 1.31943 15.8437 1.69998 16.4347 1.69998Z" fill="white"/>
<path d="M16.4347 15.1181C17.0257 15.1181 17.5049 14.7375 17.5049 14.2681C17.5049 13.7986 17.0257 13.4181 16.4347 13.4181C15.8437 13.4181 15.3646 13.7986 15.3646 14.2681C15.3646 14.7375 15.8437 15.1181 16.4347 15.1181Z" fill="white"/>
<path d="M23.1298 8.63147C23.5983 8.63147 23.9781 8.15139 23.9781 7.55913C23.9781 6.96687 23.5983 6.48676 23.1298 6.48676C22.6613 6.48676 22.2816 6.96687 22.2816 7.55913C22.2816 8.15139 22.6613 8.63147 23.1298 8.63147Z" fill="white"/>
<path d="M9.73936 8.63147C10.2079 8.63147 10.5876 8.15139 10.5876 7.55913C10.5876 6.96687 10.2079 6.48676 9.73936 6.48676C9.27094 6.48676 8.89117 6.96687 8.89117 7.55913C8.89117 8.15139 9.27094 8.63147 9.73936 8.63147Z" fill="white"/>
</g>
<defs>
<clipPath id="clip0_3558_32392">
<rect width="32.9921" height="30" fill="white"/>
</clipPath>
</defs>
</svg>
