<svg width="105" height="30" viewBox="0 0 105 30" fill="none" xmlns="http://www.w3.org/2000/svg">
<path d="M34.4346 8.47818C31.9845 8.47818 29.6899 9.6449 28.1343 11.6283V8.71152H24.0508L24.0508 28.7791H28.1343L28.1343 17.1119C28.1343 14.584 30.1566 12.4839 32.6845 12.4839C35.2124 12.4839 37.2347 14.584 37.2347 17.1119V28.7791L41.2794 28.7791V16.9564C41.2794 11.6672 38.207 8.47818 34.4346 8.47818Z" fill="white"/>
<path d="M47.9069 0C46.2735 0 44.9901 1.32228 44.9901 2.95569C44.9901 4.58911 46.2735 5.91139 47.9069 5.91139C49.5403 5.91139 50.8237 4.58911 50.8237 2.95569C50.8237 1.32228 49.5403 0 47.9069 0ZM49.8903 8.71152H45.8457V28.7791H49.8903V8.71152Z" fill="white"/>
<path d="M55.4528 8.71152V12.445L66.8867 12.445V16.1397H62.6087C56.8918 16.1397 53.7805 18.9009 53.7805 22.9455C53.7805 26.5624 56.7362 29.0125 60.4309 29.0125C62.7643 29.0125 65.2144 28.118 66.8867 25.9401V28.7791L70.8925 28.7791V8.71152L55.4528 8.71152ZM61.5976 25.629C59.4975 25.629 57.903 24.4234 57.903 22.7122C57.903 20.9621 59.0697 19.3287 63.1532 19.3287H66.8867C66.8867 23.7233 64.281 25.629 61.5976 25.629Z" fill="white"/>
<path d="M100.526 8.88931C99.8649 9.93936 93.0979 21.2177 92.3201 22.54C92.3201 22.5011 92.3201 8.88931 92.2812 8.88931L87.8477 8.88931C87.8088 8.88931 80.3418 21.3732 79.6417 22.5788L79.6029 21.3343L79.6417 8.88931H75.5582V28.9569H79.6417C80.6918 27.168 88.2366 14.6062 88.2755 14.6062V28.9569H92.3201C93.2146 27.4791 100.915 14.6451 100.954 14.6451V28.9569H104.999V8.88931L100.526 8.88931Z" fill="white"/>
<path d="M9.83936 4.36696C10.8116 4.36696 11.5894 4.6003 12.1339 4.83364V1.17791C11.4728 0.866788 10.306 0.555664 9.02265 0.555664C5.60027 0.555664 3.07237 3.12245 3.07237 6.77818V8.72272H0L0 12.2618H3.07237L3.07237 28.7903H7.117L7.117 12.2618L15.2446 12.2618V8.72272L7.117 8.72272V6.85596C7.117 5.14477 8.4004 4.36696 9.83936 4.36696Z" fill="white"/>
<path d="M19.2892 8.72272H15.2446L15.2446 28.7903H19.2892L19.2892 8.72272Z" fill="white"/>
</svg>
