<svg width="420" height="357" viewBox="0 0 420 357" fill="none" xmlns="http://www.w3.org/2000/svg">
<path d="M419 345.359C354.684 341.209 112.016 354.315 86.9393 277.672C84.1943 269.282 86.6539 257.527 90.7207 250.069C103.911 225.882 153.574 197.764 168.762 234.055C180.188 261.356 233.135 270.43 256.015 257.352C271.24 248.65 285.066 227.799 287.418 211.119C288.918 200.479 294.912 184.271 284.979 177.427C277.608 172.348 261.229 169.912 252.421 169.394C237.218 168.5 156.793 161.505 156.793 181.384C156.793 201.263 289.35 207.426 303.483 181.384C313.859 162.267 233.675 160.323 223.939 160.323C212.572 160.323 154.578 160.036 147.039 172.29C144.049 177.15 143.419 181.423 143.419 187.097C143.419 201.086 143.604 215.304 147.763 228.824C160.282 269.52 192.623 277.672 232.532 277.672C242.795 277.672 262.617 272.835 270.083 265.367C287.091 248.354 288.137 237.533 296.363 215.063C298.74 208.57 300.478 201.689 303.483 195.427C311.454 178.816 326.614 175.135 326.614 199.692C326.614 222.039 299.823 234.055 299.823 220.293C303.483 181.384 356.845 226.036 356.302 251.276C355.076 308.291 265.873 336.01 223.939 337.208C186.908 338.266 50.9796 304.656 18.4245 321.096C7.63955 326.542 0.999999 337.208 1 356.126" stroke="white" stroke-width="0.673727" stroke-linecap="round"/>
<path d="M223.853 119.115C223.853 134.604 223.853 153.833 223.853 169.322C223.853 174.985 224.837 184.813 216.371 184.315C215.213 184.247 215.677 180.574 217.202 180.574C219.867 180.574 221.293 180.885 223.556 182.178C227.65 184.517 227.059 176.266 227.059 174.161C227.059 163.315 228.128 152.43 228.128 141.561C228.128 134.043 228.128 129.627 228.128 122.502" stroke="white" stroke-width="0.673727" stroke-linecap="round"/>
<path d="M261.42 25.895C247.517 42.4178 258.219 48.8852 244.539 65.5993C237.556 74.1303 231.287 84.7316 222.926 91.7418C221.116 93.2593 208.148 105.781 211.054 108.026C214.38 110.595 220.485 116.421 223.9 119.093M227.92 122.296C228.559 122.873 234.401 125.218 235.02 124.482C236.946 122.193 238.821 119.59 241.04 117.671C248.389 111.318 254.275 103.409 261.42 96.7719C269.429 89.3327 276.877 78.0464 282.412 68.2184C295.596 44.8115 310.648 65.5993 332.113 37.1389C333.836 34.5993 309.544 29.4849 306.297 27.4683C304.277 26.2137 302.754 23.1965 300.672 22.303C296.468 20.4981 290.765 16.5545 287.171 13.4756C285.603 12.1328 285.248 15.8374 284.833 17.2271C282.887 23.7335 262.933 19.7756 258.926 25.0091C261.175 36.253 249.423 59.1312 238.556 68.0461C234.345 71.5016 230.496 76.7967 227.381 81.4421C224.738 85.3828 221.594 88.4751 219.35 92.7313C217.409 96.4151 215.13 99.46 214 103.612C212.91 107.613 221.399 108.438 223.289 109.003C227.407 110.235 231.183 111.326 234.587 114.123C236.377 115.594 237.739 117.688 239.557 119.093" stroke="white" stroke-width="0.673727" stroke-linecap="round"/>
<path d="M222.382 188.783C222.1 188.783 219.533 188.615 220.183 189.409C220.552 189.86 220.838 189.886 221.443 189.936C222.355 190.011 223.468 190.046 224.362 189.823C225.058 189.649 224.19 189.055 223.899 188.958C222.97 188.649 221.837 188.588 220.916 188.895" stroke="white" stroke-width="0.673727" stroke-linecap="round"/>
</svg>
