<svg width="485" height="100" viewBox="0 0 485 100" fill="none" xmlns="http://www.w3.org/2000/svg">
<path d="M143.516 40.1562H154.482V98.122H143.516V40.1562Z" fill="white"/>
<path d="M218.344 40.1562H229.117V98.122H218.344V40.1562Z" fill="white"/>
<path d="M5.70508 40.1465H16.4784V98.1122H5.70508V40.1465Z" fill="white"/>
<path d="M77.4477 62.5515V98.1185H66.6745V64.1008C66.6745 53.3855 61.7072 47.5115 52.8691 47.5115C42.9991 47.5115 37.5156 54.8055 37.5156 68.2965V98.1185H26.7422V40.1528H37.5156L37.1931 55.1283C39.2573 44.8003 46.2246 38.6035 56.4172 38.6035C69.4483 38.6035 77.4477 47.705 77.4477 62.5515Z" fill="white"/>
<path d="M78.7949 40.1465H90.0843L107.825 87.0742L125.565 40.1465H136.597L113.244 98.1122H101.954L78.7949 40.1465Z" fill="white"/>
<path d="M162.344 79.6657L172.343 79.4074C172.665 87.2182 178.6 92.4467 186.987 92.4467C194.534 92.4467 199.502 88.8319 199.502 83.6032C199.502 78.5039 196.276 75.9219 189.051 74.4372L180.471 72.8234C169.311 70.8224 164.214 65.5939 164.214 56.2987C164.214 45.5834 173.246 38.1602 185.825 38.1602C199.179 38.1602 208.662 46.5517 209.049 58.4934L199.308 58.8162C198.986 51.1347 193.502 45.7769 185.825 45.7769C179.439 45.7769 174.536 49.5854 174.536 55.0722C174.536 59.5907 177.117 62.3017 182.535 63.4637L190.986 65.0774C203.76 67.2722 209.888 73.0817 209.888 82.2477C209.888 92.8339 200.47 99.9989 186.922 99.9989C172.794 100.063 162.666 91.7367 162.344 79.6657Z" fill="white"/>
<path d="M301.507 69.3897C301.507 87.141 290.152 99.599 273.509 99.599C264.347 99.599 257.122 95.4032 252.737 88.1092V98.1145H241.963V85.7852V12.7148H252.737V50.3475C257.122 42.9242 264.347 38.5992 273.509 38.5992C290.152 38.5992 301.507 51.3157 301.507 69.3897ZM290.734 69.3897C290.734 56.3505 282.734 47.5717 271.381 47.5717C260.025 47.5717 252.09 56.5442 252.09 69.3897C252.09 81.9122 259.962 90.6265 271.381 90.6265C282.734 90.6912 290.734 81.977 290.734 69.3897Z" fill="white"/>
<path d="M308.723 81.977V70.939V12.7148H319.496V70.8742V79.8467C319.496 86.1082 321.82 89.142 326.722 89.142C328.141 89.142 329.625 88.8192 331.044 88.2382L331.366 97.2752C329.173 98.1145 326.27 98.6955 323.109 98.6955C314.594 98.6955 308.723 93.596 308.723 81.977Z" fill="white"/>
<path d="M389.861 71.9742H344.704C344.831 83.0122 352.252 91.5972 362.96 91.5972C371.218 91.5972 378.183 86.6914 379.345 79.6554L388.892 80.4947C387.733 91.6619 376.959 99.8597 363.025 99.8597C346.188 99.8597 333.865 87.2079 333.865 69.0694C333.865 51.5117 345.606 38.4082 362.508 38.4082C378.443 38.4082 390.119 50.7372 390.119 68.3592C390.054 69.3922 390.054 70.6832 389.861 71.9742ZM379.54 65.1319C379.54 54.6747 372.442 46.5415 362.378 46.5415C352.509 46.5415 345.218 54.0937 344.704 65.1319H379.54Z" fill="white"/>
<path d="M223.819 32.1423C229.84 32.1423 234.721 27.2585 234.721 21.2342C234.721 15.2099 229.84 10.3262 223.819 10.3262C217.799 10.3262 212.918 15.2099 212.918 21.2342C212.918 27.2585 217.799 32.1423 223.819 32.1423Z" fill="white"/>
<path d="M149.18 10.9668C143.536 10.9668 138.924 15.582 138.924 21.2295C138.924 26.877 143.536 31.4922 149.18 31.4922C154.824 31.4922 159.437 26.9377 159.437 21.2295C159.437 15.582 154.824 10.9668 149.18 10.9668ZM141.533 21.2295C141.533 17.5252 144.204 14.4282 147.663 13.6995V28.7595C144.143 28.0307 141.533 24.9338 141.533 21.2295ZM150.698 28.7595V13.6995C154.218 14.4282 156.827 17.5252 156.827 21.2295C156.888 24.9338 154.218 28.0307 150.698 28.7595Z" fill="white" stroke="white" stroke-width="0.282068" stroke-miterlimit="10"/>
<path d="M10.9338 14.1989C14.8156 14.1989 17.9858 17.3617 17.9858 21.2345C17.9858 25.1073 14.8156 28.27 10.9338 28.27C7.05197 28.27 3.88182 25.1073 3.88182 21.2345C3.88182 17.3617 7.05197 14.1989 10.9338 14.1989ZM10.9338 10.3262C4.91697 10.3262 0 15.2317 0 21.2345C0 27.2373 4.91697 32.1428 10.9338 32.1428C16.9506 32.1428 21.8029 27.2373 21.8029 21.2345C21.8029 15.2317 16.9506 10.3262 10.9338 10.3262Z" fill="white"/>
<path d="M393.814 40.214V33.4453V0H400.5V33.3658V38.8602C400.5 42.7622 401.932 44.5937 404.955 44.5937C405.832 44.5937 406.707 44.3548 407.584 44.0363L407.821 49.6105C406.469 50.0883 404.638 50.4865 402.729 50.4865C397.475 50.4865 393.814 47.3807 393.814 40.214Z" fill="white"/>
<path d="M410.049 41.0878C410.049 34.3193 415.62 30.258 426.204 29.4618L433.844 28.8245V27.3115C433.844 21.9763 430.821 18.6317 425.727 18.6317C421.112 18.6317 417.769 21.1003 417.529 26.5153L411.083 26.4358C411.403 18.3132 417.769 13.2168 425.727 13.2168C435.039 13.2168 440.451 18.7114 440.451 27.5505V39.8138C440.451 43.7158 440.848 47.538 441.405 50.0863H434.879C434.482 48.5733 434.162 46.1048 434.162 41.6453H433.924C432.89 47.0603 427.876 50.7233 421.509 50.7233C414.586 50.803 410.049 46.9805 410.049 41.0878ZM433.924 35.673V32.4878L427.081 33.045C420.235 33.6025 416.655 35.9915 416.655 40.5305C416.655 44.0343 419.678 46.3435 423.975 46.3435C429.707 46.4233 433.924 41.9638 433.924 35.673Z" fill="white"/>
<path d="M482.475 32.4898C482.475 43.479 475.471 51.1235 465.205 51.1235C459.554 51.1235 455.096 48.5753 452.39 44.0363V50.168H445.707V42.603V0H452.39V20.7043C455.096 16.0856 459.554 13.4578 465.205 13.4578C475.471 13.4578 482.475 21.2617 482.475 32.4898ZM475.789 32.4898C475.789 24.4469 470.854 19.032 463.851 19.032C456.848 19.032 451.993 24.5266 451.993 32.4898C451.993 40.214 456.848 45.629 463.851 45.629C470.854 45.5493 475.789 40.214 475.789 32.4898Z" fill="white"/>
</svg>
