<svg width="690" height="100" viewBox="0 0 690 100" fill="none" xmlns="http://www.w3.org/2000/svg">
<g clip-path="url(#clip0_1275:34)">
<path fill-rule="evenodd" clip-rule="evenodd" d="M0 97.2194H9.98038V7.98065H0V6.77148H45.0921C75.9954 6.77148 93.9117 12.4548 93.9117 31.9227C93.9117 51.3907 75.9954 58.2832 45.0921 58.2832H41.4848V57.074H45.0921C58.6798 57.074 63.6101 47.1586 63.6101 32.6486C63.6101 18.1386 58.6798 7.98065 45.0921 7.98065H37.9977V97.2194H51.5854V98.4286H0V97.2194Z" fill="white"/>
<mask id="mask0_1275:34" style="mask-type:alpha" maskUnits="userSpaceOnUse" x="95" y="0" width="42" height="99">
<path d="M95.4785 0H136.241V98.4283H95.4785V0Z" fill="white"/>
</mask>
<g mask="url(#mask0_1275:34)">
<path fill-rule="evenodd" clip-rule="evenodd" d="M100.288 14.8729C100.288 6.65042 106.901 0 115.078 0C123.375 0 130.11 6.65042 130.11 14.8729C130.11 23.2167 123.375 29.9879 115.078 29.9879C106.901 29.9879 100.288 23.2167 100.288 14.8729ZM128.666 97.2192H136.241V98.4283H95.4785V97.2192H103.054V55.7438L95.4785 48.8512V48.3679L128.666 32.5275V97.2192Z" fill="white"/>
</g>
<path fill-rule="evenodd" clip-rule="evenodd" d="M138.168 97.219H145.744V55.7436L138.168 48.8511V48.3678L171.356 32.5273V46.1911C173.28 38.0894 181.096 34.9453 189.513 34.9453C202.5 34.9453 208.633 43.6515 208.633 57.4365V97.219H216.208V98.4282H183.019V56.1065C183.019 45.949 181.577 41.5961 177.248 41.5961C172.919 41.5961 171.356 45.949 171.356 56.1065V97.219H178.932V98.4282H138.168V97.219Z" fill="white"/>
<path fill-rule="evenodd" clip-rule="evenodd" d="M221.98 7.98065H214.404V6.77148H247.592V62.274L263.585 37.7269H287.635L277.533 54.6557H253.965L247.953 63.8457H275.249L294.488 98.4286H265.75L247.592 65.7802V98.4286H221.98V7.98065Z" fill="white"/>
<path fill-rule="evenodd" clip-rule="evenodd" d="M364.114 51.5119C377.462 51.5119 381.911 43.0473 381.911 29.7465C381.911 16.4448 377.462 7.98065 364.114 7.98065H362.191V51.5119H364.114ZM324.193 97.2194H334.174V7.98065H324.193V6.77148H363.634C394.537 6.77148 412.213 11.3665 412.213 28.6582C412.213 42.4423 397.303 48.8515 375.538 50.0607V50.3027C395.86 50.9069 402.473 59.9761 409.928 71.4632L427.364 98.4286H394.778L365.798 52.7211H362.191V97.2194H372.171V98.4286H324.193V97.2194Z" fill="white"/>
<path fill-rule="evenodd" clip-rule="evenodd" d="M472.943 91.4149C472.943 86.3366 471.14 78.1132 467.772 65.6587C462.362 45.4653 459.235 36.6382 454.305 36.6382C451.299 36.6382 449.375 38.8149 449.375 43.5307C449.375 48.6091 451.179 56.832 454.546 69.287C459.957 89.4803 463.083 98.3074 468.014 98.3074C471.02 98.3074 472.943 96.1307 472.943 91.4149ZM426.648 67.4728C426.648 50.0603 438.553 34.9453 461.159 34.9453C483.766 34.9453 495.67 50.0603 495.67 67.4728C495.67 84.8853 483.766 99.9999 461.159 99.9999C438.553 99.9999 426.648 84.8853 426.648 67.4728Z" fill="white"/>
<path fill-rule="evenodd" clip-rule="evenodd" d="M547.498 91.4149C547.498 86.3366 545.694 78.1132 542.327 65.6587C536.917 45.4653 533.79 36.6382 528.86 36.6382C525.854 36.6382 523.93 38.8149 523.93 43.5307C523.93 48.6091 525.734 56.832 529.101 69.287C534.512 89.4803 537.638 98.3074 542.568 98.3074C545.574 98.3074 547.498 96.1307 547.498 91.4149ZM501.203 67.4728C501.203 50.0603 513.108 34.9453 535.714 34.9453C558.32 34.9453 570.225 50.0603 570.225 67.4728C570.225 84.8853 558.32 99.9999 535.714 99.9999C513.108 99.9999 501.203 84.8853 501.203 67.4728Z" fill="white"/>
<path fill-rule="evenodd" clip-rule="evenodd" d="M615.199 98.4282H574.436V97.219H582.011V55.744L574.436 48.8515V48.3678L607.624 32.5273V46.1911C609.547 38.0894 617.363 34.9457 625.78 34.9457C636.121 34.9457 642.013 40.3869 644.058 48.8515C645.141 38.2103 654.399 34.9457 663.057 34.9457C676.044 34.9457 682.176 43.6515 682.176 57.4365V97.219H689.751V98.4282H656.563V56.1065C656.563 45.949 655.12 41.5961 650.791 41.5961C646.463 41.5961 644.9 45.949 644.9 56.1065V97.219H652.475V98.4282H619.287V56.1065C619.287 45.949 617.845 41.5961 613.515 41.5961C609.186 41.5961 607.624 45.949 607.624 56.1065V97.219H615.199V98.4282Z" fill="white"/>
</g>
<defs>
<clipPath id="clip0_1275:34">
<rect width="689.888" height="100" fill="white"/>
</clipPath>
</defs>
</svg>
