<svg width="154" height="30" viewBox="0 0 154 30" fill="none" xmlns="http://www.w3.org/2000/svg">
<g clip-path="url(#clip0_1732_170)">
<path d="M55.4866 13.6193C54.9612 13.2717 54.3875 13.0054 53.7842 12.8292C53.1363 12.6365 52.4787 12.4792 51.814 12.358C51.1772 12.2337 50.5998 12.1153 50.078 12.005C49.6172 11.9144 49.168 11.7718 48.7387 11.5799C48.3997 11.4339 48.1028 11.2035 47.8757 10.9102C47.6645 10.6033 47.5585 10.2349 47.5741 9.86136C47.5579 9.52235 47.6287 9.18488 47.7795 8.88166C47.9304 8.57844 48.1563 8.31978 48.4352 8.13077C49.0106 7.72971 49.7566 7.52917 50.6732 7.52917C51.6507 7.52917 52.4509 7.78452 53.0739 8.29521C53.3767 8.53955 53.6276 8.84306 53.8117 9.1876C53.9957 9.53215 54.1092 9.91066 54.1453 10.3005H56.8714C56.8434 9.35371 56.5578 8.43302 56.0461 7.63948C55.518 6.84977 54.7781 6.22857 53.9132 5.84872C52.891 5.40379 51.7859 5.18697 50.6732 5.21304C49.6234 5.18937 48.5812 5.39813 47.6197 5.82466C46.8016 6.18974 46.0997 6.77701 45.592 7.52116C45.1031 8.26752 44.8511 9.14691 44.8698 10.0418C44.8449 10.7465 44.9928 11.4464 45.3003 12.0792C45.579 12.6115 45.9839 13.0656 46.4789 13.4008C47.0042 13.7513 47.5778 14.0216 48.1812 14.2029C48.8168 14.3997 49.4626 14.5611 50.1157 14.6862C50.7684 14.8125 51.3537 14.9348 51.8756 15.0511C52.3394 15.1505 52.792 15.2969 53.2267 15.4883C53.573 15.6331 53.875 15.8684 54.1017 16.1701C54.3134 16.4903 54.419 16.8702 54.4033 17.255C54.4197 17.611 54.3434 17.9651 54.1818 18.2818C54.0202 18.5986 53.7791 18.8668 53.4826 19.0598C52.8689 19.4769 52.0753 19.6854 51.1018 19.6854C49.9827 19.6854 49.0701 19.3906 48.3637 18.8011C48.0192 18.5196 47.7382 18.167 47.5394 17.7669C47.3406 17.3667 47.2286 16.9283 47.211 16.4809L44.4829 16.4328C44.4942 17.4637 44.7889 18.4712 45.3341 19.3425C45.8879 20.1983 46.6719 20.8766 47.5939 21.2977C48.6908 21.7872 49.8813 22.0249 51.0799 21.9935C52.1724 22.0166 53.2564 21.7955 54.2545 21.3458C55.1085 20.9592 55.8419 20.3441 56.3754 19.5671C56.8834 18.8017 57.1478 17.8977 57.1333 16.9762C57.1583 16.27 57.0053 15.569 56.6889 14.9388C56.4058 14.4065 55.9968 13.9533 55.4985 13.6193" fill="white"/>
<path d="M66.5457 16.9046C66.5559 17.4654 66.419 18.0189 66.1489 18.5089C65.884 18.9732 65.491 19.3495 65.018 19.5918C64.4631 19.8668 63.85 20.0004 63.2323 19.9808C62.6657 20.0095 62.1062 19.8434 61.645 19.5096C61.4559 19.3685 61.3031 19.1836 61.1995 18.9703C61.096 18.7571 61.0446 18.5218 61.0498 18.2843C61.0498 17.6734 61.2601 17.2181 61.6807 16.9187C62.1014 16.6192 62.6966 16.4702 63.4664 16.4715H66.5437L66.5457 16.9046ZM69.2718 19.4494C69.2015 19.3674 69.1487 19.2717 69.1166 19.1682C69.0845 19.0647 69.0739 18.9556 69.0853 18.8478V14.035C69.0853 12.6072 68.6462 11.5197 67.7679 10.7724C66.8896 10.0251 65.6581 9.65207 64.0735 9.65341C63.1702 9.6376 62.2723 9.79759 61.4288 10.1247C60.7165 10.3975 60.0863 10.8521 59.5995 11.4442C59.1421 12.0269 58.8592 12.7296 58.784 13.4695H61.3018C61.3462 13.2073 61.4447 12.9575 61.591 12.7364C61.7374 12.5152 61.9281 12.3277 62.151 12.1861C62.6993 11.8439 63.3364 11.6756 63.9803 11.7029C64.7898 11.7029 65.4194 11.8954 65.8691 12.2804C66.0942 12.4759 66.2721 12.7208 66.3893 12.9964C66.5066 13.272 66.5601 13.571 66.5457 13.8706V14.6045H63.5855C61.9069 14.6045 60.6325 14.9388 59.7622 15.6072C58.8918 16.2756 58.4566 17.2302 58.4566 18.4708C58.4392 19.1503 58.6351 19.8178 59.0161 20.3779C59.4095 20.9241 59.9522 21.3423 60.5776 21.5811C61.313 21.8686 62.0967 22.0089 62.8851 21.9941C64.02 21.9941 64.9293 21.7348 65.6132 21.2161C66.0892 20.8541 66.5005 20.4126 66.8294 19.9106C66.8125 20.4068 66.9675 20.8934 67.2679 21.2863C67.5774 21.6633 68.1601 21.8518 69.0159 21.8518H70.3432V19.6178H69.8551C69.6474 19.6357 69.4404 19.5773 69.2718 19.4534" fill="white"/>
<path d="M80.3766 10.1785C79.6233 9.81683 78.7979 9.63501 77.964 9.64705C76.8145 9.64705 75.9138 9.88301 75.2617 10.3549C74.8484 10.6495 74.4737 10.9958 74.1466 11.3857L73.8589 9.78943H71.6487V21.8494H74.1883V15.7492C74.1713 15.0384 74.3024 14.332 74.5732 13.6757C74.7975 13.1236 75.1843 12.6543 75.6811 12.3316C76.1779 12.0088 76.7607 11.848 77.3509 11.8709C78.2993 11.8709 79.0102 12.1697 79.4838 12.7673C79.9573 13.3649 80.1941 14.2339 80.1941 15.3742V21.8514H82.7575V15.1356C82.7575 13.7854 82.5399 12.7098 82.1047 11.9091C81.7236 11.1598 81.1152 10.5533 80.3687 10.1785" fill="white"/>
<path d="M93.4278 17.8946C93.159 18.4688 92.7398 18.9578 92.2156 19.3083C91.6772 19.6583 91.048 19.8384 90.4081 19.8257C89.7533 19.8425 89.1084 19.6624 88.555 19.3083C88.0322 18.9594 87.6165 18.4697 87.3546 17.8946C87.0784 17.2389 86.936 16.5337 86.936 15.8211C86.936 15.1085 87.0784 14.4032 87.3546 13.7476C87.6148 13.174 88.0312 12.6872 88.555 12.3438C89.1112 11.9976 89.755 11.822 90.4081 11.8385C91.0464 11.8257 91.6745 12.0013 92.2156 12.3438C92.7414 12.6882 93.1614 13.1744 93.4278 13.7476C93.7255 14.4009 93.8727 15.114 93.8584 15.8331C93.8723 16.5406 93.725 17.2418 93.4278 17.8825V17.8946ZM93.8108 11.4475C93.49 11.0056 93.0911 10.6276 92.6342 10.3325C91.9279 9.86996 91.0304 9.638 89.9418 9.63667C88.9314 9.61972 87.9359 9.88479 87.0649 10.4027C86.2119 10.9199 85.5175 11.6661 85.059 12.5584C84.5519 13.5639 84.2997 14.6808 84.3249 15.809C84.2939 16.9571 84.5462 18.0949 85.059 19.1198C85.5184 20.0053 86.2176 20.7405 87.0748 21.2395C87.9567 21.7404 88.9541 21.9963 89.9656 21.9814C91.0688 21.9814 91.9623 21.7221 92.6461 21.2033C93.0943 20.8655 93.4948 20.4674 93.8366 20.0202L94.1342 21.839H96.3722V5.36133H93.8108V11.4475Z" fill="white"/>
<path d="M102.326 12.3475C102.859 12.0032 103.48 11.8272 104.112 11.8422C104.789 11.8107 105.454 12.024 105.989 12.4438C106.49 12.8738 106.831 13.4638 106.955 14.1162H109.636C109.388 12.7352 108.793 11.6436 107.85 10.8415C106.907 10.0394 105.668 9.63833 104.132 9.63833C103.034 9.61326 101.948 9.88166 100.985 10.4164C100.094 10.926 99.3666 11.6841 98.89 12.6002C98.3742 13.6029 98.1176 14.721 98.144 15.8508C98.116 16.9758 98.3612 18.0905 98.8583 19.0974C99.3202 20.0032 100.039 20.7495 100.922 21.2411C101.885 21.7617 102.965 22.0214 104.057 21.9951C105.578 21.9951 106.828 21.5907 107.808 20.7819C108.791 19.9675 109.438 18.8133 109.626 17.5433H106.953C106.812 18.1851 106.469 18.7633 105.975 19.1917C105.445 19.6117 104.783 19.8252 104.11 19.7933C103.48 19.8093 102.859 19.637 102.324 19.298C101.809 18.955 101.404 18.467 101.16 17.8942C100.617 16.5621 100.617 15.0673 101.16 13.7352C101.409 13.1656 101.813 12.679 102.324 12.3315" fill="white"/>
<path d="M113.842 5.36133H111.302V21.8511H113.842V5.36133Z" fill="white"/>
<path d="M124.796 17.8722C124.528 18.4468 124.108 18.9359 123.584 19.286C123.179 19.5541 122.721 19.7309 122.243 19.8046C121.765 19.8782 121.276 19.8469 120.81 19.7128C120.345 19.5787 119.914 19.3449 119.545 19.0273C119.177 18.7097 118.881 18.3158 118.677 17.8722C118.401 17.2228 118.259 16.5234 118.259 15.8168C118.259 15.1101 118.401 14.4108 118.677 13.7613C118.945 13.1752 119.377 12.6811 119.92 12.3401C120.462 11.9991 121.092 11.826 121.73 11.8422C122.385 11.8252 123.03 12.0053 123.584 12.3596C124.106 12.7081 124.525 13.1932 124.796 13.7633C125.08 14.4106 125.226 15.1107 125.226 15.8188C125.226 16.5268 125.08 17.227 124.796 17.8742V17.8722ZM124.935 10.4305C123.946 9.91904 122.852 9.65234 121.741 9.65234C120.631 9.65234 119.536 9.91904 118.548 10.4305C117.645 10.9273 116.901 11.6754 116.405 12.5862C115.907 13.5893 115.647 14.6963 115.647 15.8188C115.647 16.9413 115.907 18.0482 116.405 19.0513C116.897 19.9689 117.642 20.7231 118.548 21.2231C119.536 21.7345 120.631 22.0012 121.741 22.0012C122.852 22.0012 123.946 21.7345 124.935 21.2231C125.833 20.7167 126.572 19.9656 127.068 19.0554C127.574 18.0545 127.837 16.9467 127.837 15.8228C127.837 14.6989 127.574 13.591 127.068 12.5902C126.569 11.6851 125.83 10.9385 124.935 10.4345" fill="white"/>
<path d="M133.204 12.3475C133.737 12.0032 134.358 11.8273 134.99 11.8422C135.667 11.8111 136.332 12.0243 136.867 12.4438C137.368 12.8738 137.709 13.4638 137.833 14.1162H140.514C140.266 12.7352 139.671 11.6437 138.728 10.8416C137.785 10.0394 136.546 9.63836 135.012 9.63836C133.913 9.61301 132.828 9.88142 131.865 10.4164C130.973 10.9264 130.245 11.6843 129.766 12.6002C129.25 13.6017 128.992 14.7182 129.016 15.8468C128.99 16.9738 129.238 18.09 129.738 19.0975C130.199 20.0032 130.917 20.7495 131.8 21.2411C132.763 21.7613 133.843 22.021 134.935 21.9951C136.458 21.9951 137.71 21.5907 138.688 20.7819C139.67 19.9669 140.317 18.813 140.506 17.5433H137.831C137.689 18.1848 137.346 18.7628 136.853 19.1917C136.323 19.6114 135.661 19.8249 134.988 19.7933C134.358 19.8093 133.737 19.637 133.202 19.298C132.687 18.955 132.282 18.4671 132.038 17.8943C131.493 16.5626 131.493 15.0669 132.038 13.7352C132.287 13.1657 132.691 12.6791 133.202 12.3315" fill="white"/>
<path d="M153.099 9.78907H150.117L144.732 15.5844V5.36133H142.192V21.8511H144.732V18.7889L146.853 16.551L150.373 21.8511H153.379L148.601 14.666L153.099 9.78907Z" fill="white"/>
<path d="M22.174 18.4296L31.5507 8.95245V6.47587H29.0984L19.7216 15.955V3.75265L17.9896 2L16.2555 3.75265V15.953L6.87877 6.47387H4.42646V8.95044L13.8052 18.4276H1.73408C1.05751 19.1114 0.676568 19.4944 0 20.1802L1.73408 21.9309H15.0095L17.9856 18.9229L20.9617 21.9309H34.2371L35.9712 20.1802L34.2371 18.4276L22.174 18.4296Z" fill="white"/>
</g>
<defs>
<clipPath id="clip0_1732_170">
<rect width="153.38" height="30" fill="white"/>
</clipPath>
</defs>
</svg>
