<svg width="167" height="30" viewBox="0 0 167 30" fill="none" xmlns="http://www.w3.org/2000/svg">
<path d="M102.763 16.3278C102.763 16.6876 103.123 16.9367 104.258 16.9367C105.309 16.9367 105.558 16.7706 105.558 16.4939C105.558 16.1894 105.365 16.1341 104.064 16.0234C102.293 15.9127 101.518 15.5529 101.518 14.5843C101.518 13.671 102.486 13.2559 104.009 13.2559C105.697 13.2559 106.638 13.754 106.693 14.7227H105.392C105.392 14.3352 104.977 14.1968 104.009 14.1968C103.095 14.1968 102.874 14.3629 102.874 14.5843C102.874 14.861 103.068 14.9441 104.258 15.0271C105.863 15.1378 106.887 15.2485 106.887 16.4108C106.887 17.5179 105.863 17.85 104.313 17.85C102.542 17.85 101.518 17.4348 101.435 16.3001H102.763V16.3278Z" fill="white"/>
<path d="M111.315 14.1406H112.477V17.7661H111.315V16.9358C110.872 17.517 110.235 17.8768 109.211 17.8768C108.049 17.8768 107.274 17.3786 107.274 16.0225V14.1406H108.437V15.6351C108.437 16.4654 108.741 16.9082 109.71 16.9082C110.678 16.9082 111.287 16.4654 111.287 15.5797V14.1406H111.315Z" fill="white"/>
<path d="M118.178 15.9392C118.178 17.3507 117.154 17.8765 116.075 17.8765C115.3 17.8765 114.663 17.6274 114.303 17.1016V19.2049H113.141V14.1403H114.303V14.7769C114.663 14.251 115.327 14.002 116.075 14.002C117.154 14.0296 118.178 14.5555 118.178 15.9392ZM116.96 15.9392C116.96 15.3304 116.518 14.9983 115.632 14.9983C114.774 14.9983 114.331 15.3304 114.331 15.9392C114.331 16.5481 114.802 16.8802 115.66 16.8802C116.518 16.9079 116.96 16.5758 116.96 15.9392Z" fill="white"/>
<path d="M122.44 16.4927H123.603C123.354 17.3507 122.579 17.8765 121.14 17.8765C119.562 17.8765 118.538 17.24 118.538 15.9392C118.538 14.6385 119.618 14.002 121.084 14.002C122.579 14.002 123.63 14.6385 123.63 16.1606H119.756C119.839 16.7695 120.337 16.9632 121.195 16.9632C121.97 16.9909 122.302 16.7972 122.44 16.4927ZM119.811 15.4964H122.413C122.247 15.0259 121.804 14.8322 121.084 14.8322C120.42 14.8322 119.977 15.0259 119.811 15.4964Z" fill="white"/>
<path d="M127.81 14.1953V15.2193C127.422 15.081 127.173 15.0533 126.869 15.0533C126.426 15.0533 125.9 15.164 125.319 15.8005V17.7655H124.156V14.14H125.319V14.8872C125.789 14.2507 126.287 14.0293 126.896 14.0293C127.256 14.0293 127.533 14.0846 127.81 14.1953Z" fill="white"/>
<path d="M130.632 14.0293C132.071 14.0293 132.957 14.5275 133.151 15.6068H131.933C131.795 15.2193 131.407 14.9979 130.632 14.9979C129.747 14.9979 129.248 15.3024 129.248 15.9942C129.248 16.6861 129.747 16.9906 130.632 16.9906C131.407 16.9906 131.795 16.7692 131.933 16.3817H133.151C132.957 17.4334 132.071 17.9592 130.632 17.9592C129.027 17.9592 128.086 17.3227 128.086 16.0219C128.086 14.6658 129.027 14.0293 130.632 14.0293Z" fill="white"/>
<path d="M138.88 15.8838V17.7657H137.717V16.2713C137.717 15.441 137.413 14.9982 136.444 14.9982C135.475 14.9982 134.867 15.441 134.867 16.3266V17.738H133.704V12.8672H134.867V14.9428C135.309 14.3617 135.946 14.0019 136.97 14.0019C138.105 14.0296 138.88 14.5277 138.88 15.8838Z" fill="white"/>
<path d="M144.359 15.9112V17.7655H143.197V17.295C142.533 17.6548 141.73 17.8485 141.011 17.8485C139.987 17.8485 139.322 17.5164 139.322 16.6585C139.322 15.6898 140.374 15.4131 141.453 15.4131C142.09 15.4131 142.699 15.5238 143.197 15.6345C143.169 14.9979 142.477 14.8872 141.896 14.8872C141.287 14.8872 140.678 14.9703 139.848 15.1917L139.627 14.3614C140.402 14.1677 141.204 14.0293 142.09 14.0293C143.584 14.0293 144.332 14.5275 144.359 15.9112ZM143.169 16.6861V16.354C142.699 16.2433 142.145 16.1603 141.564 16.1603C140.872 16.1603 140.54 16.271 140.54 16.5754C140.54 16.8799 140.817 16.9629 141.398 16.9629C141.869 16.9906 142.699 16.7968 143.169 16.6861Z" fill="white"/>
<path d="M148.566 14.1953V15.2193C148.178 15.081 147.929 15.0533 147.625 15.0533C147.182 15.0533 146.656 15.164 146.075 15.8005V17.7655H144.913V14.14H146.075V14.8872C146.545 14.2507 147.044 14.0293 147.652 14.0293C148.04 14.0293 148.289 14.0846 148.566 14.1953Z" fill="white"/>
<path d="M152.717 14.1403H153.879V17.3507C153.879 18.7621 153.105 19.3433 151.61 19.3433C150.641 19.3433 149.784 19.2049 149.119 19.0389L149.258 18.1256C149.977 18.264 150.669 18.3747 151.361 18.3747C152.274 18.3747 152.717 18.0979 152.717 17.2953V17.0186C152.357 17.5167 151.721 17.7658 150.974 17.7658C149.922 17.7658 148.87 17.2676 148.87 15.8839C148.87 14.5001 149.922 14.002 150.974 14.002C151.721 14.002 152.357 14.2234 152.717 14.7492V14.1403ZM152.717 15.9116C152.717 15.358 152.302 14.9983 151.389 14.9983C150.475 14.9983 150.06 15.3304 150.06 15.9116C150.06 16.4927 150.475 16.8248 151.389 16.8248C152.302 16.8248 152.717 16.4927 152.717 15.9116Z" fill="white"/>
<path d="M154.488 12.8945H155.651V13.7525H154.488V12.8945ZM154.488 14.1399H155.651V17.7654H154.488V14.1399Z" fill="white"/>
<path d="M161.518 15.8835V17.7655H160.355V16.271C160.355 15.4407 160.051 14.9979 159.082 14.9979C158.114 14.9979 157.505 15.4407 157.505 16.3264V17.7378H156.315V14.14H157.477V14.9703C157.92 14.3891 158.556 14.0293 159.58 14.0293C160.743 14.0293 161.518 14.5275 161.518 15.8835Z" fill="white"/>
<path d="M165.835 14.1403H166.998V17.3507C166.998 18.7621 166.223 19.3433 164.728 19.3433C163.76 19.3433 162.902 19.2049 162.237 19.0389L162.376 18.1256C163.095 18.264 163.787 18.3747 164.479 18.3747C165.392 18.3747 165.835 18.0979 165.835 17.2953V17.0186C165.476 17.5167 164.839 17.7658 164.092 17.7658C163.04 17.7658 161.988 17.2676 161.988 15.8839C161.988 14.5001 163.04 14.002 164.092 14.002C164.839 14.002 165.476 14.2234 165.835 14.7492V14.1403ZM165.835 15.9116C165.835 15.358 165.42 14.9983 164.507 14.9983C163.594 14.9983 163.178 15.3304 163.178 15.9116C163.178 16.4927 163.594 16.8248 164.507 16.8248C165.42 16.8248 165.835 16.4927 165.835 15.9116Z" fill="white"/>
<path d="M102.791 22.6911C102.791 23.0509 103.151 23.3 104.285 23.3C105.337 23.3 105.586 23.1339 105.586 22.8572C105.586 22.5527 105.392 22.4974 104.092 22.3867C102.32 22.276 101.545 21.9162 101.545 20.9476C101.545 20.0343 102.514 19.6191 104.036 19.6191C105.724 19.6191 106.665 20.1173 106.721 21.0859H105.392C105.392 20.6985 104.977 20.5601 104.009 20.5601C103.095 20.5601 102.874 20.7262 102.874 20.9476C102.874 21.2243 103.068 21.3073 104.258 21.3904C105.863 21.5011 106.887 21.6118 106.887 22.7741C106.887 23.8811 105.863 24.2132 104.313 24.2132C102.542 24.2132 101.518 23.7981 101.435 22.6634H102.791V22.6911Z" fill="white"/>
<path d="M110.679 21.4181H109.073V22.5528C109.073 23.0509 109.212 23.2723 109.738 23.2723C110.042 23.2723 110.236 23.2447 110.679 23.1616V24.1303C110.319 24.2133 109.904 24.2686 109.461 24.2686C108.381 24.2686 107.883 23.8812 107.883 22.8849V21.4181H107.025V20.5048H107.883V19.7852L109.046 19.4531V20.5048H110.651V21.4181H110.679Z" fill="white"/>
<path d="M116.186 22.2764V24.1307H115.023V23.6602C114.359 24.02 113.557 24.2137 112.837 24.2137C111.813 24.2137 111.149 23.8816 111.149 23.0237C111.149 22.0551 112.2 21.7783 113.28 21.7783C113.916 21.7783 114.525 21.889 115.023 21.9997C114.996 21.3632 114.304 21.2525 113.723 21.2525C113.141 21.2525 112.505 21.3355 111.675 21.5569L111.453 20.7266C112.228 20.5329 113.031 20.3945 113.916 20.3945C115.411 20.3945 116.158 20.8927 116.186 22.2764ZM114.996 23.0514V22.7193C114.525 22.6086 113.972 22.5255 113.391 22.5255C112.699 22.5255 112.367 22.6362 112.367 22.9407C112.367 23.2451 112.643 23.3281 113.224 23.3281C113.695 23.3558 114.525 23.1621 114.996 23.0514Z" fill="white"/>
<path d="M120.42 20.5606V21.5846C120.033 21.4462 119.784 21.4185 119.479 21.4185C119.036 21.4185 118.511 21.5292 117.929 22.1658V24.1307H116.767V20.5052H117.929V21.2525C118.4 20.6159 118.898 20.3945 119.507 20.3945C119.867 20.3945 120.116 20.4499 120.42 20.5606Z" fill="white"/>
<path d="M124.378 21.4181H122.772V22.5528C122.772 23.0509 122.911 23.2723 123.437 23.2723C123.741 23.2723 123.935 23.2447 124.378 23.1616V24.1303C124.018 24.2133 123.603 24.2686 123.16 24.2686C122.081 24.2686 121.582 23.8812 121.582 22.8849V21.4181H120.724V20.5048H121.582V19.7852L122.745 19.4531V20.5048H124.35V21.4181H124.378Z" fill="white"/>
<path d="M128.972 20.5039H130.134V24.1294H128.972V23.2991C128.529 23.8803 127.893 24.2401 126.869 24.2401C125.706 24.2401 124.931 23.7419 124.931 22.3858V20.5039H126.094V21.9984C126.094 22.8286 126.398 23.2714 127.367 23.2714C128.335 23.2714 128.944 22.8286 128.944 21.943V20.5039H128.972Z" fill="white"/>
<path d="M135.863 22.3045C135.863 23.7159 134.839 24.2417 133.76 24.2417C132.985 24.2417 132.348 23.9927 131.988 23.4668V25.5702H130.826V20.5056H131.988V21.1421C132.348 20.6163 133.012 20.3672 133.76 20.3672C134.811 20.3949 135.863 20.9207 135.863 22.3045ZM134.617 22.3045C134.617 21.6956 134.147 21.3635 133.289 21.3635C132.431 21.3635 131.988 21.6956 131.988 22.3045C131.988 22.9133 132.459 23.2454 133.317 23.2454C134.175 23.2731 134.617 22.941 134.617 22.3045Z" fill="white"/>
<path d="M137.413 22.913C137.44 23.2728 137.717 23.4388 138.741 23.4388C139.737 23.4388 139.903 23.3281 139.903 23.0514C139.903 22.7746 139.71 22.7469 138.575 22.6639C137.053 22.5532 136.306 22.4148 136.306 21.5846C136.306 20.6436 137.385 20.3945 138.658 20.3945C139.931 20.3945 140.955 20.6436 141.038 21.6122H139.793C139.765 21.2801 139.433 21.1971 138.603 21.1971C137.772 21.1971 137.551 21.3078 137.551 21.5292C137.551 21.7506 137.717 21.806 138.824 21.889C140.235 21.9997 141.149 22.0551 141.149 23.0237C141.149 24.0477 140.208 24.2968 138.824 24.2968C137.33 24.2968 136.222 24.02 136.195 22.9683H137.413V22.913Z" fill="white"/>
<path d="M43.0029 0.470703H38.4918V4.5113H43.0029V0.470703Z" fill="white"/>
<path d="M62.5141 0.470703H58.0031V4.5113H62.5141V0.470703Z" fill="white"/>
<path d="M0.106201 16.8816H4.81101C5.14311 19.7322 6.77596 20.8669 10.1523 20.8669C12.6155 20.8669 14.7741 20.0089 14.7741 17.8226C14.7741 15.4979 12.5048 15.0274 8.90696 14.1971C4.64496 13.2285 0.770409 12.0938 0.770409 7.1399C0.770409 2.46277 4.58961 0.0273438 9.8756 0.0273438C15.2169 0.0273438 18.6764 2.6565 19.0361 7.44433H14.4144C14.1376 5.06425 12.2833 3.84654 9.82024 3.84654C7.21876 3.84654 5.53057 4.95355 5.53057 6.64175C5.53057 8.57902 7.19109 9.13253 10.7059 9.90744C15.5767 10.9591 19.562 12.1215 19.562 17.2414C19.562 22.0569 15.6874 24.7414 10.3184 24.7414C3.9254 24.7414 0.272253 21.8909 0.106201 16.8816Z" fill="white"/>
<path d="M25.6231 9.40961H25.7338C26.9515 7.61072 28.363 6.72511 30.6877 6.72511C34.2025 6.72511 36.5549 9.38194 36.5549 13.0904V24.2159H32.0438V13.7546C32.0438 11.9281 30.9921 10.6273 29.0825 10.6273C27.0899 10.6273 25.6231 12.2325 25.6231 14.5572V24.2159H21.0844V0H25.5954V9.40961H25.6231Z" fill="white"/>
<path d="M43.0029 7.16797H38.4918V24.216H43.0029V7.16797Z" fill="white"/>
<path d="M49.4792 0H44.9681V24.2159H49.4792V0Z" fill="white"/>
<path d="M55.9552 0H51.4441V24.2159H55.9552V0Z" fill="white"/>
<path d="M62.4311 7.16797H57.92V24.216H62.4311V7.16797Z" fill="white"/>
<path d="M68.8241 9.49247H68.9348C70.0971 7.6659 71.6469 6.69727 73.9717 6.69727C77.4864 6.69727 79.8388 9.3541 79.8388 13.0626V24.1881H75.3278V13.7545C75.3278 11.9279 74.2761 10.6272 72.3665 10.6272C70.3739 10.6272 68.9071 12.2323 68.9071 14.5571V24.2158H64.396V7.16775H68.8241V9.49247Z" fill="white"/>
<path d="M92.9294 7.16775V8.96664H92.8741C91.8501 7.52753 90.2726 6.69727 88.1693 6.69727C83.8519 6.69727 80.8076 9.96296 80.8076 15.0275C80.8076 20.1752 84.5161 23.1641 88.3076 23.1641C90.4663 23.1641 91.767 22.3062 92.7634 21.1715H92.8741V23.0257C92.8741 25.3504 91.6564 26.5682 89.0825 26.5682C86.9792 26.5682 86.0383 25.7379 85.6508 24.6862H81.1674C81.6379 28.0073 84.4884 29.9999 89.1379 29.9999C91.6564 29.9999 93.8427 29.391 95.2818 28.0626C96.5549 26.9003 97.3021 25.2674 97.3021 22.8873V7.16775H92.9294ZM89.0549 19.5663C86.7301 19.5663 85.208 17.8781 85.208 14.9722C85.208 12.1216 86.7301 10.3227 89.0272 10.3227C91.7394 10.3227 93.0678 12.4537 93.0678 14.9445C93.0678 17.463 91.9054 19.5663 89.0549 19.5663Z" fill="white"/>
<path d="M62.5141 0H58.0031V4.51108H62.5141V0Z" fill="white"/>
<path d="M43.0029 0H38.4918V4.51108H43.0029V0Z" fill="white"/>
<path d="M104.082 5.3418C102.311 5.3418 101.37 6.42113 101.37 7.86025C101.37 9.29937 102.339 10.2957 104.082 10.2957C105.854 10.2957 106.795 9.29937 106.795 7.86025C106.795 6.42113 105.854 5.3418 104.082 5.3418ZM104.082 9.8252C102.671 9.8252 101.896 9.10564 101.896 7.86025C101.896 6.61486 102.699 5.81228 104.082 5.81228C105.494 5.81228 106.269 6.61486 106.269 7.86025C106.269 9.10564 105.494 9.8252 104.082 9.8252Z" fill="white"/>
<path d="M103.778 7.25195H104.165L103.584 8.41432H103.031L102.449 7.25195H102.837L103.307 8.19291L103.778 7.25195Z" fill="white"/>
<path d="M104.94 7.19531C105.383 7.19531 105.688 7.36136 105.743 7.69347H105.356C105.3 7.58277 105.189 7.49974 104.94 7.49974C104.664 7.49974 104.498 7.58277 104.498 7.80417C104.498 8.02557 104.664 8.1086 104.94 8.1086C105.189 8.1086 105.3 8.02557 105.356 7.91487H105.743C105.688 8.24698 105.411 8.41303 104.94 8.41303C104.442 8.41303 104.138 8.2193 104.138 7.80417C104.138 7.41672 104.442 7.19531 104.94 7.19531Z" fill="white"/>
</svg>
