<svg width="510" height="349" viewBox="0 0 510 349" fill="none" xmlns="http://www.w3.org/2000/svg">
<path d="M43.9178 128.216C41.2113 131.636 40.088 136.411 40.434 142.188C40.7802 147.968 42.5966 154.71 45.7241 161.989C51.9784 176.546 63.4341 193.154 78.6201 208.34C93.8061 223.526 109.814 234.381 123.403 239.669C130.199 242.313 136.368 243.555 141.515 243.269C146.66 242.982 150.748 241.172 153.454 237.752C156.16 234.332 157.284 229.557 156.938 223.78C156.592 218 154.775 211.258 151.648 203.978C145.393 189.421 133.938 172.814 118.752 157.628C103.566 142.442 87.5581 131.586 73.9683 126.299C67.1725 123.655 61.004 122.412 55.8569 122.699C50.7122 122.985 46.6243 124.796 43.9178 128.216Z" stroke="black"/>
<path d="M57.7108 119.835C55.0043 123.255 53.881 128.03 54.227 133.807C54.5732 139.587 56.3895 146.329 59.5171 153.609C65.7714 168.165 77.2271 184.773 92.4131 199.959C107.599 215.145 123.607 226.001 137.196 231.288C143.992 233.932 150.161 235.175 155.308 234.888C160.453 234.601 164.54 232.791 167.247 229.371C169.953 225.951 171.077 221.176 170.731 215.399C170.385 209.619 168.568 202.877 165.441 195.597C159.186 181.041 147.731 164.433 132.545 149.247C117.359 134.061 101.351 123.205 87.7613 117.918C80.9655 115.274 74.797 114.031 69.6499 114.318C64.5052 114.605 60.4172 116.415 57.7108 119.835Z" stroke="black"/>
<path d="M33.0194 136.085C30.3129 139.505 29.1896 144.28 29.5356 150.057C29.8818 155.837 31.6981 162.579 34.8257 169.859C41.08 184.415 52.5357 201.023 67.7217 216.209C82.9077 231.395 98.9153 242.251 112.505 247.538C119.301 250.182 125.469 251.425 130.616 251.138C135.761 250.851 139.849 249.041 142.556 245.621C145.262 242.201 146.385 237.426 146.039 231.649C145.693 225.869 143.877 219.127 140.749 211.847C134.495 197.291 123.039 180.683 107.853 165.497C92.6672 150.311 76.6596 139.455 63.0699 134.168C56.2741 131.524 50.1056 130.281 44.9584 130.568C39.8138 130.855 35.7258 132.665 33.0194 136.085Z" stroke="black"/>
<path d="M22.7303 147.102C20.0238 150.522 18.9005 155.297 19.2465 161.075C19.5927 166.855 21.4091 173.597 24.5366 180.876C30.7909 195.433 42.2466 212.04 57.4326 227.226C72.6186 242.412 88.6262 253.268 102.216 258.555C109.012 261.199 115.18 262.442 120.327 262.155C125.472 261.869 129.56 260.059 132.266 256.639C134.973 253.219 136.096 248.444 135.75 242.666C135.404 236.886 133.588 230.144 130.46 222.865C124.206 208.308 112.75 191.701 97.5642 176.515C82.3782 161.329 66.3706 150.473 52.7808 145.186C45.985 142.542 39.8165 141.299 34.6694 141.586C29.5247 141.872 25.4368 143.682 22.7303 147.102Z" stroke="black"/>
<path d="M95 187C95 187 132.029 91 250.636 91C369.243 91 419 187 419 187" stroke="black"/>
<path d="M465.575 116.028C461.571 114.299 456.668 114.45 451.177 116.279C445.684 118.11 439.642 121.609 433.42 126.514C420.978 136.323 407.901 151.687 397.163 170.286C386.425 188.885 380.082 207.157 378.492 221.652C377.697 228.9 378.093 235.18 379.702 240.078C381.311 244.973 384.117 248.453 388.121 250.182C392.125 251.911 397.028 251.76 402.519 249.931C408.012 248.101 414.055 244.601 420.277 239.696C432.719 229.887 445.795 214.524 456.533 195.925C467.272 177.326 473.614 159.054 475.204 144.559C475.999 137.31 475.603 131.03 473.994 126.133C472.386 121.237 469.579 117.757 465.575 116.028Z" stroke="black"/>
<path d="M477.241 127.183C473.237 125.453 468.334 125.604 462.843 127.434C457.35 129.264 451.308 132.764 445.086 137.669C432.644 147.477 419.567 162.841 408.829 181.44C398.091 200.039 391.748 218.311 390.158 232.806C389.363 240.055 389.759 246.334 391.368 251.232C392.977 256.127 395.783 259.607 399.787 261.336C403.791 263.066 408.694 262.915 414.185 261.085C419.678 259.255 425.721 255.755 431.943 250.85C444.385 241.042 457.461 225.678 468.199 207.079C478.938 188.48 485.28 170.208 486.87 155.713C487.665 148.464 487.269 142.185 485.66 137.287C484.052 132.392 481.245 128.912 477.241 127.183Z" stroke="black"/>
<path d="M455.155 107.538C451.151 105.809 446.248 105.96 440.757 107.789C435.264 109.62 429.222 113.119 423 118.024C410.558 127.833 397.481 143.197 386.743 161.795C376.005 180.394 369.662 198.666 368.072 213.161C367.277 220.41 367.673 226.69 369.282 231.587C370.891 236.483 373.697 239.963 377.701 241.692C381.705 243.421 386.608 243.27 392.099 241.441C397.593 239.61 403.635 236.111 409.857 231.206C422.299 221.397 435.375 206.033 446.114 187.434C456.852 168.835 463.194 150.564 464.784 136.068C465.579 128.82 465.183 122.54 463.574 117.642C461.966 112.747 459.159 109.267 455.155 107.538Z" stroke="black"/>
<path d="M441.848 100.45C437.844 98.721 432.942 98.8718 427.451 100.701C421.957 102.532 415.915 106.031 409.693 110.936C397.251 120.745 384.174 136.109 373.436 154.708C362.698 173.307 356.355 191.578 354.766 206.074C353.97 213.322 354.367 219.602 355.976 224.5C357.584 229.395 360.391 232.875 364.395 234.604C368.399 236.333 373.302 236.182 378.792 234.353C384.286 232.522 390.328 229.023 396.55 224.118C408.992 214.309 422.069 198.945 432.807 180.347C443.545 161.748 449.888 143.476 451.478 128.981C452.273 121.732 451.876 115.452 450.267 110.555C448.659 105.659 445.852 102.179 441.848 100.45Z" stroke="black"/>
<path d="M91.0117 183.828C93.6576 186.087 94.8853 186.974 95.9892 190.17" stroke="black" stroke-linecap="round"/>
<path d="M416.291 189.666C418.366 186.871 419.184 185.586 422.082 184.258" stroke="black" stroke-linecap="round"/>
</svg>
