<svg width="510" height="349" viewBox="0 0 510 349" fill="none" xmlns="http://www.w3.org/2000/svg">
<path d="M59.8201 61.8104C64.4487 53.7935 74.2369 49.1495 88.1739 47.7371C102.097 46.3262 120.046 48.1555 140.805 52.9649C182.319 62.5823 234.958 84.0889 288.871 115.215C342.783 146.342 387.728 181.175 416.814 212.318C431.359 227.892 441.917 242.522 447.657 255.285C453.402 268.061 454.275 278.86 449.646 286.877C445.017 294.893 435.229 299.537 421.292 300.95C407.369 302.361 389.42 300.531 368.661 295.722C327.147 286.105 274.508 264.598 220.595 233.471C166.683 202.345 121.738 167.511 92.6523 136.369C78.1073 120.795 67.5486 106.165 61.8092 93.4023C56.0638 80.6262 55.1915 69.8274 59.8201 61.8104Z" stroke="black"/>
<path d="M64.359 72.6603C68.5624 65.3799 77.7115 61.2902 90.8818 60.2685C104.033 59.2485 121.063 61.3014 140.816 66.1636C180.316 75.8863 230.591 96.813 282.268 126.649C333.944 156.484 377.205 189.56 405.375 218.907C419.462 233.583 429.755 247.305 435.447 259.204C441.148 271.12 442.18 281.088 437.977 288.369C433.774 295.649 424.625 299.739 411.454 300.761C398.304 301.781 381.274 299.728 361.52 294.866C322.02 285.143 271.745 264.216 220.068 234.381C168.392 204.545 125.131 171.469 96.9612 142.122C82.8737 127.447 72.5808 113.725 66.8888 101.826C61.1884 89.909 60.1557 79.9408 64.359 72.6603Z" stroke="black"/>
<path d="M75.5407 86.3181C79.2357 79.9182 87.4937 76.4208 99.511 75.7351C111.504 75.0507 127.096 77.1787 145.227 81.865C181.482 91.2358 227.776 110.806 275.506 138.362C323.235 165.919 363.33 196.226 389.573 222.938C402.697 236.297 412.336 248.736 417.739 259.464C423.154 270.215 424.254 279.115 420.56 285.515C416.865 291.915 408.607 295.412 396.589 296.098C384.596 296.782 369.004 294.654 350.873 289.968C314.618 280.597 268.324 261.027 220.595 233.471C172.866 205.914 132.77 175.607 106.527 148.895C93.4033 135.536 83.7645 123.097 78.3607 112.368C72.9459 101.618 71.8457 92.718 75.5407 86.3181Z" stroke="black"/>
<path d="M90.024 101.434C93.3144 95.7352 100.699 92.6222 111.486 92.034C122.248 91.4471 136.251 93.385 152.542 97.6204C185.118 106.089 226.733 123.714 269.655 148.495C312.577 173.276 348.647 200.503 372.27 224.48C384.083 236.471 392.763 247.629 397.636 257.242C402.52 266.879 403.516 274.83 400.226 280.529C396.935 286.228 389.551 289.341 378.763 289.93C368.001 290.517 353.999 288.579 337.708 284.343C305.132 275.874 263.517 258.25 220.595 233.469C177.673 208.688 141.602 181.46 117.98 157.483C106.166 145.492 97.487 134.335 92.6142 124.721C87.73 115.085 86.7336 107.133 90.024 101.434Z" stroke="black"/>
<path d="M99.9616 117.236C102.994 111.984 109.736 109.072 119.572 108.456C129.385 107.843 142.137 109.528 156.964 113.312C186.611 120.877 224.441 136.803 263.415 159.305C302.39 181.807 335.097 206.606 356.473 228.498C367.163 239.447 374.999 249.648 379.374 258.453C383.759 267.279 384.608 274.573 381.575 279.826C378.543 285.078 371.801 287.99 361.965 288.605C352.152 289.219 339.4 287.534 324.573 283.75C294.926 276.185 257.096 260.258 218.122 237.757C179.147 215.255 146.44 190.456 125.064 168.564C114.374 157.615 106.538 147.414 102.163 138.609C97.778 129.783 96.9292 122.488 99.9616 117.236Z" stroke="black"/>
<path d="M108.498 128.931C111.37 123.956 117.643 121.134 126.752 120.431C135.842 119.729 147.625 121.151 161.306 124.522C188.662 131.261 223.491 145.761 259.297 166.434C295.104 187.107 325.076 210.02 344.591 230.341C354.35 240.504 361.473 249.997 365.411 258.22C369.356 266.46 370.048 273.304 367.176 278.279C364.304 283.254 358.031 286.077 348.922 286.78C339.832 287.481 328.049 286.059 314.368 282.689C287.012 275.949 252.183 261.449 216.376 240.776C180.57 220.103 150.598 197.19 131.083 176.869C121.324 166.706 114.2 157.213 110.263 148.99C106.318 140.75 105.625 133.906 108.498 128.931Z" stroke="black"/>
<path d="M114.775 141.059C117.445 136.434 123.248 133.787 131.676 133.099C140.085 132.411 150.98 133.687 163.627 136.768C188.913 142.928 221.087 156.277 254.143 175.362C287.199 194.446 314.846 215.636 332.824 234.454C341.816 243.866 348.368 252.664 351.977 260.29C355.595 267.933 356.204 274.282 353.534 278.907C350.864 283.532 345.061 286.178 336.633 286.867C328.224 287.554 317.329 286.278 304.682 283.197C279.396 277.037 247.222 263.689 214.166 244.604C181.11 225.519 153.463 204.33 135.485 185.511C126.493 176.099 119.941 167.302 116.331 159.676C112.714 152.033 112.104 145.684 114.775 141.059Z" stroke="black"/>
<path d="M122.457 150.34C124.835 146.221 130.082 143.892 137.767 143.351C145.431 142.812 155.384 144.066 166.957 146.965C190.095 152.761 219.59 165.105 249.946 182.631C280.302 200.157 305.739 219.529 322.328 236.669C330.625 245.241 336.688 253.235 340.053 260.141C343.427 267.067 344.033 272.776 341.656 276.894C339.278 281.012 334.031 283.342 326.346 283.882C318.682 284.421 308.728 283.168 297.156 280.269C274.018 274.472 244.523 262.128 214.167 244.602C183.811 227.076 158.373 207.705 141.784 190.565C133.488 181.992 127.425 173.999 124.06 167.092C120.685 160.167 120.079 154.458 122.457 150.34Z" stroke="black"/>
<path d="M130.183 162.227C132.408 158.374 137.209 156.133 144.198 155.511C151.17 154.89 160.198 155.895 170.676 158.401C191.625 163.412 218.255 174.397 245.588 190.178C272.921 205.959 295.75 223.528 310.564 239.165C317.973 246.986 323.357 254.302 326.306 260.651C329.262 267.015 329.722 272.293 327.497 276.146C325.272 279.999 320.471 282.24 313.482 282.862C306.51 283.483 297.482 282.478 287.004 279.972C266.055 274.961 239.425 263.976 212.092 248.195C184.759 232.414 161.93 214.845 147.116 199.208C139.707 191.387 134.323 184.071 131.374 177.722C128.418 171.358 127.958 166.08 130.183 162.227Z" stroke="black"/>
<path d="M138.095 174.63C140.233 170.927 144.646 168.672 150.97 167.866C157.285 167.062 165.408 167.719 174.798 169.744C193.571 173.791 217.294 183.277 241.503 197.254C265.712 211.231 285.789 227.033 298.68 241.267C305.128 248.387 309.759 255.093 312.22 260.964C314.685 266.844 314.938 271.793 312.8 275.496C310.662 279.199 306.249 281.455 299.925 282.26C293.61 283.065 285.487 282.407 276.097 280.383C257.324 276.336 233.601 266.849 209.392 252.872C185.183 238.895 165.106 223.094 152.215 208.859C145.767 201.74 141.136 195.034 138.675 189.163C136.21 183.283 135.957 178.333 138.095 174.63Z" stroke="black"/>
<path d="M142.85 184.484C144.931 180.88 149.078 178.61 154.945 177.675C160.807 176.741 168.304 177.156 176.941 178.844C194.209 182.219 215.919 190.663 237.963 203.391C260.007 216.118 278.175 230.697 289.732 243.964C295.513 250.599 299.62 256.885 301.742 262.429C303.866 267.977 303.974 272.703 301.893 276.308C299.812 279.912 295.665 282.182 289.798 283.117C283.936 284.051 276.439 283.636 267.802 281.948C250.534 278.573 228.824 270.129 206.78 257.401C184.736 244.674 166.567 230.095 155.01 216.828C149.23 210.193 145.123 203.907 143.001 198.363C140.877 192.815 140.769 188.089 142.85 184.484Z" stroke="black"/>
<path d="M151.384 197.586C153.379 194.131 157.12 191.837 162.283 190.703C167.447 189.568 173.98 189.607 181.455 190.776C196.403 193.114 215.008 199.951 233.713 210.75C252.418 221.55 267.642 234.243 277.139 246.019C281.889 251.909 285.19 257.547 286.789 262.586C288.388 267.625 288.272 272.011 286.277 275.467C284.282 278.922 280.542 281.216 275.378 282.35C270.215 283.485 263.681 283.446 256.206 282.277C241.259 279.939 222.654 273.102 203.949 262.303C185.244 251.503 170.02 238.81 160.522 227.034C155.772 221.144 152.472 215.506 150.872 210.467C149.273 205.428 149.39 201.042 151.384 197.586Z" stroke="black"/>
<path d="M158.25 209.331C160.136 206.064 163.496 203.806 168.035 202.556C172.578 201.305 178.267 201.075 184.734 201.845C197.666 203.385 213.61 208.91 229.484 218.075C245.358 227.239 258.115 238.285 265.914 248.715C269.814 253.93 272.46 258.972 273.648 263.531C274.835 268.087 274.559 272.126 272.673 275.393C270.787 278.66 267.427 280.918 262.888 282.168C258.346 283.419 252.657 283.648 246.19 282.879C233.257 281.339 217.313 275.814 201.44 266.649C185.566 257.484 172.809 246.439 165.009 236.009C161.109 230.793 158.464 225.751 157.276 221.192C156.089 216.636 156.364 212.598 158.25 209.331Z" stroke="black"/>
<path d="M166.007 220.428C169.725 213.987 178.234 210.979 189.207 211.507C200.151 212.033 213.394 216.079 226.324 223.544C239.254 231.009 249.379 240.455 255.307 249.67C261.251 258.909 262.9 267.781 259.181 274.222C255.463 280.663 246.955 283.671 235.981 283.143C225.037 282.617 211.794 278.57 198.864 271.105C185.935 263.64 175.809 254.195 169.881 244.98C163.938 235.741 162.288 226.868 166.007 220.428Z" stroke="black"/>
<path d="M170.881 229.092C174.481 222.857 182.073 219.61 191.592 219.522C201.097 219.435 212.423 222.506 223.299 228.785C234.174 235.064 242.497 243.337 247.174 251.613C251.857 259.9 252.842 268.099 249.242 274.334C245.642 280.57 238.049 283.816 228.531 283.904C219.025 283.992 207.699 280.92 196.824 274.641C185.948 268.362 177.625 260.09 172.948 251.814C168.265 243.526 167.281 235.328 170.881 229.092Z" stroke="black"/>
<path d="M185.216 239.732C185.961 238.441 187.299 237.526 189.161 237.013C191.025 236.5 193.379 236.4 196.078 236.721C201.473 237.363 208.146 239.671 214.801 243.513C221.456 247.356 226.792 251.98 230.045 256.332C231.672 258.509 232.763 260.597 233.251 262.469C233.737 264.337 233.614 265.954 232.869 267.245C232.124 268.535 230.785 269.45 228.924 269.963C227.059 270.477 224.705 270.576 222.006 270.255C216.611 269.614 209.938 267.305 203.283 263.463C196.628 259.621 191.293 254.996 188.04 250.644C186.412 248.468 185.321 246.379 184.834 244.508C184.347 242.639 184.47 241.023 185.216 239.732Z" stroke="black"/>
</svg>
