<svg width="510" height="349" viewBox="0 0 510 349" fill="none" xmlns="http://www.w3.org/2000/svg">
<circle cx="256.14" cy="185.939" r="109.99" stroke="black"/>
<path d="M339.874 185.939C339.874 216.35 330.475 243.864 315.304 263.764C300.133 283.663 279.211 295.928 256.139 295.928C233.067 295.928 212.145 283.663 196.974 263.764C181.802 243.864 172.404 216.35 172.404 185.939C172.404 155.528 181.802 128.014 196.974 108.114C212.145 88.2144 233.067 75.9492 256.139 75.9492C279.211 75.9492 300.133 88.2144 315.304 108.114C330.475 128.014 339.874 155.528 339.874 185.939Z" stroke="black"/>
<path d="M308.149 185.939C308.149 216.392 302.281 243.938 292.817 263.852C283.335 283.804 270.334 295.928 256.139 295.928C241.943 295.928 228.942 283.804 219.46 263.852C209.996 243.938 204.129 216.392 204.129 185.939C204.129 155.485 209.996 127.939 219.46 108.025C228.942 88.074 241.943 75.9492 256.139 75.9492C270.334 75.9492 283.335 88.074 292.817 108.025C302.281 127.939 308.149 155.485 308.149 185.939Z" stroke="black"/>
<path d="M276.426 185.939C276.426 216.428 274.101 244.018 270.347 263.974C268.469 273.956 266.238 282.003 263.774 287.542C262.542 290.314 261.263 292.43 259.961 293.845C258.659 295.262 257.382 295.928 256.141 295.928C254.899 295.928 253.622 295.262 252.32 293.845C251.018 292.43 249.74 290.314 248.507 287.542C246.043 282.003 243.812 273.956 241.935 263.974C238.181 244.018 235.855 216.428 235.855 185.939C235.855 155.449 238.181 127.859 241.935 107.903C243.812 97.9212 246.043 89.8745 248.507 84.3352C249.74 81.5639 251.018 79.4479 252.32 78.0324C253.622 76.616 254.899 75.9492 256.141 75.9492C257.382 75.9492 258.659 76.616 259.961 78.0324C261.263 79.4479 262.542 81.5639 263.774 84.3352C266.238 89.8745 268.469 97.9212 270.347 107.903C274.101 127.859 276.426 155.449 276.426 185.939Z" stroke="black"/>
<path d="M257.827 185.939C257.827 216.447 257.582 244.066 257.186 264.057C256.988 274.053 256.753 282.138 256.491 287.722C256.378 290.14 256.26 292.084 256.139 293.509C256.018 292.084 255.9 290.14 255.787 287.722C255.525 282.138 255.29 274.053 255.092 264.057C254.696 244.066 254.451 216.447 254.451 185.939C254.451 155.43 254.696 127.811 255.092 107.821C255.29 97.8249 255.525 89.7397 255.787 84.1554C255.9 81.7376 256.018 79.7939 256.139 78.3688C256.26 79.7939 256.378 81.7376 256.491 84.1554C256.753 89.7397 256.988 97.8249 257.186 107.821C257.582 127.811 257.827 155.43 257.827 185.939Z" stroke="black"/>
<circle cx="132.523" cy="267.986" r="6.06374" stroke="black"/>
<circle cx="315.213" cy="32.7852" r="20.2852" stroke="black"/>
<circle cx="362.254" cy="317.213" r="20.2852" stroke="black"/>
</svg>
