<svg width="495" height="84" viewBox="0 0 495 84" fill="none" xmlns="http://www.w3.org/2000/svg">
<ellipse cx="268.255" cy="11.465" rx="10.8953" ry="10.4336" fill="url(#paint0_radial)"/>
<path d="M50.0595 27.3568H51.1946L50.0595 7.37838C43.8162 3.97297 34.9622 2.27027 28.0378 2.27027C12.4865 2.27027 0 10.2162 0 25.2C0 49.9459 38.9351 48.6973 38.9351 69.2432C38.9351 79.0054 32.1243 82.8649 25.6541 82.8649C13.0541 82.8649 4.99459 71.9676 1.24865 57.2108H0.113513L1.24865 78.3243C7.49189 81.7297 17.3676 84 25.5405 84C40.7513 84 54.7135 76.2811 54.7135 58.8C54.7135 33.0324 15.7784 33.373 15.7784 13.9622C15.7784 6.47027 21.5676 3.4054 28.1513 3.4054C38.8216 3.4054 46.3135 15.0973 50.0595 27.3568Z" fill="white"/>
<path d="M100.044 34.0541V70.9459C97.7742 72.8757 94.4823 75.4865 89.2606 75.4865C85.1742 75.4865 83.1309 72.7622 83.1309 68.3351V24.973H81.0877L57.4769 27.6973V28.8324C63.4931 29.4 64.1742 29.8541 64.1742 34.0541V66.973C64.1742 79.4595 71.3255 84 79.7255 84C88.012 84 94.8228 78.8919 100.044 72.0811H100.612L101.066 84H102.201L125.698 81.2757V80.1405C119.682 79.573 119.001 79.1189 119.001 74.9189V24.973H116.958L91.0769 27.6973V28.8324C99.3633 29.4 100.044 29.8541 100.044 34.0541Z" fill="white"/>
<path d="M151.276 33.373H150.709L151.276 0H150.141L125.622 2.72432V3.85946C131.638 4.42702 132.32 4.88108 132.32 9.08108V83.4324H133.455L142.649 77.1892C148.438 82.5243 155.476 84 161.265 84C177.157 84 189.644 72.7622 189.644 54.4865C189.644 37.4595 181.13 24.973 166.828 24.973C160.017 24.973 154.909 28.2649 151.276 33.373ZM158.087 31.7838C164.557 31.7838 169.665 38.8216 169.665 55.3946C169.665 69.8108 166.941 82.4108 159.676 82.4108C156.611 82.4108 151.276 81.1622 151.276 69.0162V34.5081C153.433 32.6919 155.703 31.7838 158.087 31.7838Z" fill="white"/>
<path d="M194.284 34.6216L215.284 83.4324H225.159L242.981 35.3027C244.684 30.8757 245.932 28.2649 251.381 27.2432V26.1081H229.132V27.2432C241.392 27.9243 242.981 31.2162 241.392 35.6432L229.132 68.6757H228.905L215.851 35.6432C214.262 31.6703 214.716 27.9243 221.3 27.2432V26.1081H187.586V27.2432C191.105 27.6973 192.695 30.8757 194.284 34.6216Z" fill="white"/>
<path d="M278.248 77.4162V24.973H277.113L252.594 27.6973V28.8324C258.61 29.4 259.291 29.8541 259.291 34.0541V77.4162C259.291 80.7081 258.61 81.1622 252.594 81.7297V82.8649H284.945V81.7297C278.929 81.1622 278.248 80.7081 278.248 77.4162Z" fill="white"/>
<path d="M327.134 43.1351H328.27L327.134 28.4919C322.594 26.3351 315.329 24.973 309.994 24.973C294.783 24.973 288.086 32.4649 288.086 41.5459C288.086 62.2054 317.94 61.5243 317.94 74.9189C317.94 79.9135 314.307 82.8649 308.518 82.8649C299.891 82.8649 292.399 76.9622 288.653 64.7027H287.518L288.767 80.027C293.307 82.2973 302.048 84 307.951 84C322.48 84 331.448 76.9622 331.448 66.1784C331.448 46.7676 302.388 47.4486 302.388 33.0324C302.388 28.6054 304.999 26.1081 309.767 26.1081C317.145 26.1081 324.07 35.0757 327.134 43.1351Z" fill="white"/>
<path d="M375.736 34.0541V70.9459C373.466 72.8757 370.174 75.4865 364.952 75.4865C360.866 75.4865 358.822 72.7622 358.822 68.3351V24.973H356.779L333.168 27.6973V28.8324C339.185 29.4 339.866 29.8541 339.866 34.0541V66.973C339.866 79.4595 347.017 84 355.417 84C363.703 84 370.514 78.8919 375.736 72.0811H376.303L376.758 84H377.893L401.39 81.2757V80.1405C395.374 79.573 394.693 79.1189 394.693 74.9189V24.973H392.649L366.768 27.6973V28.8324C375.055 29.4 375.736 29.8541 375.736 34.0541Z" fill="white"/>
<path d="M453.076 75.7135V42.3405C453.303 32.6919 445.357 24.973 431.281 24.973C414.935 24.973 405.741 37.1189 405.741 43.5892C405.741 47.9027 409.26 49.4919 413.006 49.4919C417.206 49.4919 420.157 47.3351 420.157 44.7243C420.157 41.4324 413.46 40.2973 413.46 35.7568C413.46 31.3297 418.227 28.6054 422.995 28.6054C431.054 28.6054 434.119 34.7351 434.119 41.0919V52.5568C409.487 54.0324 404.038 63.5676 404.038 70.6054C404.038 78.0973 408.919 84 417.546 84C424.357 84 430.033 80.5946 433.892 74.9189H434.119V76.2811C434.119 80.4811 437.07 84 443.541 84C450.011 84 455.8 81.0486 460.454 77.3027L460.341 76.3946C458.865 77.3027 457.049 78.3243 455.687 78.3243C453.984 78.3243 453.076 77.3027 453.076 75.7135ZM434.119 53.6919V73.7838C432.643 74.6919 431.281 75.6 429.238 75.6C425.606 75.6 423.335 72.9892 423.335 66.2919C423.335 57.7784 427.195 54.6 434.119 53.6919Z" fill="white"/>
<path d="M487.428 77.4162V0H486.293L461.774 2.72432V3.85946C467.79 4.42702 468.471 4.88108 468.471 9.08108V77.4162C468.471 80.7081 467.79 81.1622 461.774 81.7297V82.8649H494.125V81.7297C488.109 81.1622 487.428 80.7081 487.428 77.4162Z" fill="white"/>
<defs>
<radialGradient id="paint0_radial" cx="0" cy="0" r="1" gradientUnits="userSpaceOnUse" gradientTransform="translate(275.524 4.24778) rotate(128.89) scale(17.323 18.2953)">
<stop stop-color="white" stop-opacity="0.6"/>
<stop offset="1" stop-color="white"/>
</radialGradient>
</defs>
</svg>
