<svg width="227" height="30" viewBox="0 0 227 30" fill="none" xmlns="http://www.w3.org/2000/svg">
<path d="M54.5164 24.8861C55.0964 24.8861 55.6676 24.8422 56.23 24.7543V21.7754C55.896 21.8281 55.5885 21.8544 55.3073 21.8544C54.4637 21.8544 53.8485 21.6611 53.4619 21.2745C53.0752 20.8878 52.8819 20.3342 52.8819 19.6136V13.4711H56.1772V10.3867H52.8819V7.11776H49.4284V8.22498C49.4284 8.92799 49.2351 9.46403 48.8484 9.8331C48.4618 10.2022 47.9169 10.3867 47.2139 10.3867H46.9503V13.4711H49.4284V19.7982C49.4284 21.3975 49.8678 22.6453 50.7465 23.5417C51.6429 24.438 52.8995 24.8861 54.5164 24.8861Z" fill="white"/>
<path d="M62.0866 25.0443C63.9495 25.0443 65.4434 24.4292 66.5682 23.1989V24.728H69.8372V15.1847C69.8372 14.1829 69.5823 13.2954 69.0727 12.5221C68.563 11.7488 67.86 11.1512 66.9637 10.7294C66.0849 10.2901 65.0568 10.0704 63.8792 10.0704C62.4381 10.0704 61.1551 10.4131 60.0303 11.0985C58.9055 11.7839 58.1322 12.6891 57.7104 13.8139L60.5312 15.1847C60.7948 14.5344 61.2078 14.016 61.7702 13.6293C62.3326 13.2251 62.9917 13.023 63.7474 13.023C64.5383 13.023 65.171 13.2339 65.6455 13.6557C66.1376 14.0599 66.3837 14.5696 66.3837 15.1847V15.6592L62.1129 16.3447C60.4257 16.6259 59.1779 17.1619 58.3694 17.9528C57.561 18.7437 57.1568 19.7367 57.1568 20.9318C57.1568 22.1972 57.6049 23.1989 58.5013 23.9371C59.3976 24.6752 60.5927 25.0443 62.0866 25.0443ZM60.7421 20.7999C60.7421 19.7982 61.4187 19.1655 62.772 18.9018L66.3837 18.2955V18.8755C66.3837 19.8597 66.041 20.6945 65.3555 21.3799C64.6877 22.0653 63.8089 22.4081 62.7193 22.4081C62.1393 22.4081 61.6648 22.2675 61.2957 21.9863C60.9266 21.6875 60.7421 21.292 60.7421 20.7999Z" fill="white"/>
<path d="M71.9746 24.728H75.4281V4.77148H71.9746V24.728Z" fill="white"/>
<path d="M84.3638 25.0443C85.8225 25.0443 87.0967 24.7192 88.1864 24.0689C89.2936 23.4011 90.0669 22.5575 90.5063 21.5381L87.7118 20.1672C87.3955 20.7121 86.9561 21.1602 86.3937 21.5117C85.8489 21.8457 85.181 22.0126 84.3902 22.0126C83.3532 22.0126 82.4833 21.6963 81.7803 21.0636C81.0773 20.4309 80.673 19.5873 80.5676 18.5328H90.9017C90.972 18.3394 91.016 18.1197 91.0335 17.8737C91.0687 17.6101 91.0863 17.3464 91.0863 17.0828C91.0863 15.7998 90.8138 14.6311 90.269 13.5766C89.7242 12.5221 88.9333 11.6785 87.8964 11.0458C86.8595 10.3955 85.594 10.0704 84.1002 10.0704C82.7645 10.0704 81.5518 10.3955 80.4621 11.0458C79.39 11.6961 78.5377 12.5836 77.905 13.7084C77.2898 14.8156 76.9823 16.0898 76.9823 17.531C76.9823 18.9194 77.2898 20.1848 77.905 21.3272C78.5201 22.4696 79.3813 23.3747 80.4885 24.0425C81.5957 24.7104 82.8875 25.0443 84.3638 25.0443ZM84.1002 12.9175C85.0141 12.9175 85.7698 13.1987 86.3674 13.7611C86.9825 14.306 87.3252 15.0177 87.3955 15.8965H80.6467C80.84 14.9474 81.2442 14.2181 81.8593 13.7084C82.492 13.1812 83.239 12.9175 84.1002 12.9175Z" fill="white"/>
<path d="M92.6497 24.728H96.1032V16.3183C96.1032 15.3868 96.3668 14.6399 96.8941 14.0775C97.4389 13.5151 98.1419 13.2339 99.0031 13.2339C99.8642 13.2339 100.558 13.5151 101.086 14.0775C101.631 14.6223 101.903 15.3692 101.903 16.3183V24.728H105.356V15.5011C105.356 14.429 105.128 13.4887 104.671 12.6803C104.214 11.8542 103.573 11.2127 102.747 10.7558C101.938 10.2988 101.007 10.0704 99.9521 10.0704C99.0558 10.0704 98.2473 10.2461 97.5268 10.5976C96.8238 10.9491 96.2789 11.4676 95.8923 12.153V10.3867H92.6497V24.728Z" fill="white"/>
<path d="M113.76 24.8861C114.34 24.8861 114.911 24.8422 115.474 24.7543V21.7754C115.14 21.8281 114.832 21.8544 114.551 21.8544C113.707 21.8544 113.092 21.6611 112.706 21.2745C112.319 20.8878 112.126 20.3342 112.126 19.6136V13.4711H115.421V10.3867H112.126V7.11776H108.672V8.22498C108.672 8.92799 108.479 9.46403 108.092 9.8331C107.706 10.2022 107.161 10.3867 106.458 10.3867H106.194V13.4711H108.672V19.7982C108.672 21.3975 109.112 22.6453 109.99 23.5417C110.887 24.438 112.143 24.8861 113.76 24.8861Z" fill="white"/>
<path d="M124.32 30.0005H127.773V23.3571C128.301 23.9019 128.942 24.3237 129.698 24.6225C130.454 24.9037 131.271 25.0443 132.15 25.0443C133.538 25.0443 134.777 24.7192 135.867 24.0689C136.956 23.4011 137.817 22.5047 138.45 21.3799C139.083 20.2375 139.399 18.9634 139.399 17.5573C139.399 16.1513 139.083 14.8859 138.45 13.7611C137.817 12.6188 136.956 11.7224 135.867 11.0721C134.777 10.4043 133.547 10.0704 132.176 10.0704C131.192 10.0704 130.304 10.2461 129.513 10.5976C128.722 10.9491 128.072 11.4412 127.562 12.0739V10.3867H124.32V30.0005ZM131.754 21.8808C130.998 21.8808 130.313 21.6963 129.698 21.3272C129.1 20.9581 128.626 20.4484 128.274 19.7982C127.94 19.1479 127.773 18.4009 127.773 17.5573C127.773 16.7137 127.94 15.9668 128.274 15.3165C128.626 14.6662 129.1 14.1566 129.698 13.7875C130.313 13.4184 130.998 13.2339 131.754 13.2339C132.545 13.2339 133.239 13.4272 133.837 13.8139C134.452 14.1829 134.935 14.6926 135.287 15.3429C135.638 15.9932 135.814 16.7313 135.814 17.5573C135.814 18.3834 135.638 19.1303 135.287 19.7982C134.935 20.4484 134.452 20.9581 133.837 21.3272C133.239 21.6963 132.545 21.8808 131.754 21.8808Z" fill="white"/>
<path d="M140.978 24.728H144.431V16.7401C144.431 15.6505 144.73 14.8068 145.328 14.2093C145.943 13.5942 146.734 13.2866 147.7 13.2866H148.939V10.2285H148.096C147.217 10.2285 146.444 10.3867 145.776 10.7031C145.108 11.0194 144.589 11.5906 144.22 12.4166V10.3867H140.978V24.728Z" fill="white"/>
<path d="M156.796 25.0443C158.184 25.0443 159.45 24.728 160.592 24.0953C161.734 23.445 162.648 22.5575 163.334 21.4326C164.019 20.2903 164.362 18.9985 164.362 17.5573C164.362 16.1162 164.019 14.8332 163.334 13.7084C162.666 12.5836 161.761 11.6961 160.618 11.0458C159.476 10.3955 158.202 10.0704 156.796 10.0704C155.372 10.0704 154.089 10.3955 152.947 11.0458C151.805 11.6961 150.891 12.5836 150.205 13.7084C149.537 14.8332 149.203 16.1162 149.203 17.5573C149.203 18.9985 149.537 20.2815 150.205 21.4063C150.891 22.5311 151.805 23.4186 152.947 24.0689C154.107 24.7192 155.39 25.0443 156.796 25.0443ZM156.796 21.8808C156.023 21.8808 155.328 21.6963 154.713 21.3272C154.116 20.9581 153.641 20.4484 153.29 19.7982C152.956 19.1303 152.789 18.3834 152.789 17.5573C152.789 16.7313 152.956 15.9932 153.29 15.3429C153.641 14.6926 154.116 14.1829 154.713 13.8139C155.328 13.4272 156.023 13.2339 156.796 13.2339C157.569 13.2339 158.246 13.4272 158.826 13.8139C159.423 14.1829 159.889 14.6926 160.223 15.3429C160.575 15.9932 160.75 16.7313 160.75 17.5573C160.75 18.3834 160.575 19.1303 160.223 19.7982C159.889 20.4484 159.423 20.9581 158.826 21.3272C158.246 21.6963 157.569 21.8808 156.796 21.8808Z" fill="white"/>
<path d="M172.207 24.8861C172.787 24.8861 173.358 24.8422 173.92 24.7543V21.7754C173.587 21.8281 173.279 21.8544 172.998 21.8544C172.154 21.8544 171.539 21.6611 171.152 21.2745C170.766 20.8878 170.572 20.3342 170.572 19.6136V13.4711H173.868V10.3867H170.572V7.11776H167.119V8.22498C167.119 8.92799 166.926 9.46403 166.539 9.8331C166.152 10.2022 165.607 10.3867 164.904 10.3867H164.641V13.4711H167.119V19.7982C167.119 21.3975 167.558 22.6453 168.437 23.5417C169.333 24.438 170.59 24.8861 172.207 24.8861Z" fill="white"/>
<path d="M182.388 25.0443C183.777 25.0443 185.042 24.728 186.184 24.0953C187.327 23.445 188.241 22.5575 188.926 21.4326C189.612 20.2903 189.954 18.9985 189.954 17.5573C189.954 16.1162 189.612 14.8332 188.926 13.7084C188.258 12.5836 187.353 11.6961 186.211 11.0458C185.068 10.3955 183.794 10.0704 182.388 10.0704C180.965 10.0704 179.682 10.3955 178.539 11.0458C177.397 11.6961 176.483 12.5836 175.798 13.7084C175.13 14.8332 174.796 16.1162 174.796 17.5573C174.796 18.9985 175.13 20.2815 175.798 21.4063C176.483 22.5311 177.397 23.4186 178.539 24.0689C179.699 24.7192 180.982 25.0443 182.388 25.0443ZM182.388 21.8808C181.615 21.8808 180.921 21.6963 180.306 21.3272C179.708 20.9581 179.233 20.4484 178.882 19.7982C178.548 19.1303 178.381 18.3834 178.381 17.5573C178.381 16.7313 178.548 15.9932 178.882 15.3429C179.233 14.6926 179.708 14.1829 180.306 13.8139C180.921 13.4272 181.615 13.2339 182.388 13.2339C183.161 13.2339 183.838 13.4272 184.418 13.8139C185.016 14.1829 185.481 14.6926 185.815 15.3429C186.167 15.9932 186.343 16.7313 186.343 17.5573C186.343 18.3834 186.167 19.1303 185.815 19.7982C185.481 20.4484 185.016 20.9581 184.418 21.3272C183.838 21.6963 183.161 21.8808 182.388 21.8808Z" fill="white"/>
<path d="M198.426 25.0443C199.463 25.0443 200.42 24.8686 201.299 24.5171C202.178 24.148 202.934 23.6471 203.566 23.0144C204.199 22.3641 204.656 21.6348 204.937 20.8263L201.906 19.4555C201.624 20.2112 201.176 20.8087 200.561 21.2481C199.964 21.6699 199.252 21.8808 198.426 21.8808C197.67 21.8808 196.993 21.6963 196.396 21.3272C195.816 20.9581 195.359 20.4484 195.025 19.7982C194.691 19.1303 194.524 18.3834 194.524 17.5573C194.524 16.7137 194.691 15.9668 195.025 15.3165C195.359 14.6662 195.816 14.1566 196.396 13.7875C196.993 13.4184 197.67 13.2339 198.426 13.2339C199.252 13.2339 199.964 13.4536 200.561 13.8929C201.176 14.3323 201.624 14.9123 201.906 15.6329L204.937 14.3147C204.639 13.4711 204.173 12.733 203.54 12.1003C202.907 11.45 202.152 10.9491 201.273 10.5976C200.394 10.2461 199.445 10.0704 198.426 10.0704C197.002 10.0704 195.719 10.3955 194.577 11.0458C193.452 11.6961 192.564 12.5836 191.914 13.7084C191.264 14.8332 190.939 16.1074 190.939 17.531C190.939 18.9546 191.264 20.2375 191.914 21.3799C192.564 22.5047 193.452 23.4011 194.577 24.0689C195.719 24.7192 197.002 25.0443 198.426 25.0443Z" fill="white"/>
<path d="M213.516 25.0443C214.904 25.0443 216.169 24.728 217.312 24.0953C218.454 23.445 219.368 22.5575 220.054 21.4326C220.739 20.2903 221.082 18.9985 221.082 17.5573C221.082 16.1162 220.739 14.8332 220.054 13.7084C219.386 12.5836 218.481 11.6961 217.338 11.0458C216.196 10.3955 214.922 10.0704 213.516 10.0704C212.092 10.0704 210.809 10.3955 209.667 11.0458C208.524 11.6961 207.61 12.5836 206.925 13.7084C206.257 14.8332 205.923 16.1162 205.923 17.5573C205.923 18.9985 206.257 20.2815 206.925 21.4063C207.61 22.5311 208.524 23.4186 209.667 24.0689C210.827 24.7192 212.11 25.0443 213.516 25.0443ZM213.516 21.8808C212.742 21.8808 212.048 21.6963 211.433 21.3272C210.835 20.9581 210.361 20.4484 210.009 19.7982C209.675 19.1303 209.509 18.3834 209.509 17.5573C209.509 16.7313 209.675 15.9932 210.009 15.3429C210.361 14.6926 210.835 14.1829 211.433 13.8139C212.048 13.4272 212.742 13.2339 213.516 13.2339C214.289 13.2339 214.966 13.4272 215.546 13.8139C216.143 14.1829 216.609 14.6926 216.943 15.3429C217.294 15.9932 217.47 16.7313 217.47 17.5573C217.47 18.3834 217.294 19.1303 216.943 19.7982C216.609 20.4484 216.143 20.9581 215.546 21.3272C214.966 21.6963 214.289 21.8808 213.516 21.8808Z" fill="white"/>
<path d="M222.646 24.728H226.1V4.77148H222.646V24.728Z" fill="white"/>
<path fill-rule="evenodd" clip-rule="evenodd" d="M6.30951 0L0.817142 1.1512V4.83329L0.817139 10.3257L23.8851 5.49237V0L6.60918 3.61972C6.45468 3.65209 6.30951 3.53418 6.30951 3.37633V0ZM6.30952 18.3468C6.30952 17.995 6.55615 17.6913 6.90051 17.6192L23.8851 14.0605V8.56811L0.817139 13.4014L0.817139 18.2347L0.817144 18.3445L0.817145 18.3478V18.4544H0.817656C0.876616 24.7738 6.01776 29.8785 12.3511 29.8785C18.6845 29.8785 23.8256 24.7738 23.8846 18.4544H23.8851V18.3554L23.8851 18.3445L23.8851 17.1362L18.3927 18.2874V18.3524C18.3885 21.6855 15.6852 24.3861 12.3511 24.3861C9.01521 24.3861 6.31075 21.6824 6.30952 18.3468Z" fill="white"/>
</svg>
