<svg width="103" height="29" viewBox="0 0 103 29" fill="none" xmlns="http://www.w3.org/2000/svg">
<path fill-rule="evenodd" clip-rule="evenodd" d="M12.0151 28.7679H18.5341V11.7279L14.1741 6.68785H25.2941V0.367852H0.494141L12.0151 13.7679V28.7679ZM46.0541 28.7679H52.4531V0.367852H46.0541V14.4079L28.1331 0.0478516V28.7679H34.5331V13.6079L46.0541 22.8479V28.7679ZM63.6141 22.9279V6.20785H67.1731C71.9331 6.20785 75.1731 10.0079 75.1731 14.5679C75.1731 19.1279 71.9331 22.9279 67.1731 22.9279H63.6141ZM57.2131 28.7679H67.1731C75.1731 28.7679 81.6141 22.4079 81.6141 14.5679C81.6141 6.72785 75.1731 0.367852 67.1731 0.367852H57.2131V28.7679ZM84.7731 17.6479H96.1331V22.4479H84.7731V28.7679H102.533V11.4879H91.1731V6.68785H102.533V0.367852H84.7731V17.6479Z" fill="white"/>
</svg>
