<svg width="95" height="31" viewBox="0 0 95 31" fill="none" xmlns="http://www.w3.org/2000/svg">
<path d="M37.3824 20.4983V19.3104C36.4327 20.3645 35.0819 20.9705 33.6632 20.9788C31.3878 20.9788 30.2501 19.7743 30.2501 17.643V10.3562C30.2491 10.2423 30.34 10.1483 30.4538 10.143H32.3218C32.4398 10.143 32.5359 10.2381 32.5391 10.3562V16.7812C32.5391 18.4224 33.3696 18.95 34.6808 18.95C35.7411 18.9218 36.7305 18.4151 37.373 17.572V10.3562C37.374 10.2381 37.4701 10.143 37.5892 10.143H39.4614C39.5784 10.143 39.6745 10.2381 39.6745 10.3562V20.4983C39.6745 20.6163 39.5784 20.7114 39.4614 20.7114H37.5924C37.4764 20.7082 37.3834 20.6142 37.3824 20.4983ZM44.7226 19.2467V24.5246C44.7226 24.6426 44.6275 24.7388 44.5094 24.7388H42.6404C42.5224 24.7388 42.4252 24.6437 42.4231 24.5246V10.3562C42.4252 10.2381 42.5213 10.143 42.6404 10.143H44.5094C44.6275 10.143 44.7226 10.2381 44.7226 10.3562V11.5868C45.5228 10.5066 46.7901 9.87141 48.1346 9.87872C50.8707 9.87872 52.8055 11.9368 52.8055 15.4168C52.8055 18.8967 50.8582 20.9746 48.1346 20.9746C46.7921 20.9684 45.5322 20.3269 44.7351 19.2467H44.7226ZM50.433 15.4168C50.433 13.3587 49.2514 11.9138 47.4305 11.9138C46.3565 11.9326 45.3546 12.4508 44.7184 13.3148V17.4947C45.3463 18.3754 46.3502 18.9092 47.4305 18.9395C49.265 18.9395 50.4466 17.4717 50.4466 15.4168H50.433ZM62.2466 20.7114C62.1286 20.7114 62.0335 20.6163 62.0335 20.4983V14.0597C62.0335 12.3913 61.1988 11.9138 59.9086 11.9138C58.8388 11.9441 57.8411 12.4602 57.1965 13.3148V20.4972C57.1944 20.6153 57.0972 20.7103 56.9792 20.7103H55.1405C55.0224 20.7103 54.9263 20.6153 54.9242 20.4972V6.32878C54.92 6.20968 55.0151 6.10939 55.1342 6.10521C55.1363 6.10521 55.1394 6.10521 55.1405 6.10521H57.0053C57.1233 6.10521 57.2205 6.20028 57.2226 6.31833V11.5628C58.166 10.4982 59.5189 9.88499 60.9418 9.87872C63.2161 9.87872 64.3549 11.0603 64.3549 13.2155V20.4983C64.3549 20.6163 64.2598 20.7114 64.1417 20.7114H62.2466ZM66.4506 15.4168C66.4506 12.3745 68.5087 9.87872 71.8789 9.87872C75.2481 9.87872 77.3062 12.3745 77.3062 15.4168C77.3062 18.459 75.2481 20.9746 71.8789 20.9746C68.5097 20.9746 66.4642 18.4496 66.4642 15.4168H66.4506ZM74.9211 15.4168C74.9211 13.5551 73.8503 11.9138 71.8789 11.9138C69.9065 11.9138 68.8367 13.5551 68.8367 15.4168C68.8367 17.2784 69.9305 18.9395 71.8789 18.9395C73.8263 18.9395 74.9347 17.2983 74.9347 15.4168H74.9211ZM79.428 20.4983V6.32878C79.4301 6.21073 79.5262 6.11566 79.6443 6.11566H81.5091C81.6272 6.11566 81.7243 6.21073 81.7264 6.32878V20.4972C81.7243 20.6153 81.6282 20.7103 81.5091 20.7103H79.6443C79.5315 20.703 79.4427 20.61 79.4416 20.4972H79.428V20.4983ZM91.926 20.4983V19.2665C91.1257 20.3374 89.87 20.9705 88.5327 20.9746C85.8405 20.9746 83.8618 18.9166 83.8618 15.4168C83.8618 12.0005 85.8311 9.87872 88.5327 9.87872C89.8783 9.86723 91.1435 10.5129 91.926 11.6067V6.32878C91.926 6.21073 92.021 6.11566 92.1391 6.11566H94.0081C94.1262 6.11566 94.2212 6.21073 94.2212 6.32878V20.4972C94.2212 20.6153 94.1262 20.7103 94.0081 20.7103H92.1391C92.0263 20.703 91.9396 20.61 91.9396 20.4972H91.926V20.4983ZM91.926 17.5187V13.3388C91.295 12.4623 90.29 11.9347 89.2097 11.9138C87.3721 11.9138 86.2072 13.3816 86.2072 15.4168C86.2072 17.4519 87.3679 18.9395 89.2097 18.9395C90.292 18.9228 91.3044 18.3963 91.9385 17.5177H91.926V17.5187ZM14.2795 28.3347C13.3779 28.6063 12.4419 28.7473 11.5006 28.7515H11.37C10.4225 28.7484 9.48116 28.6053 8.57435 28.3284C8.13243 28.1978 7.66754 28.4506 7.53695 28.8915C7.40636 29.3334 7.65918 29.7983 8.10005 29.93C9.16148 30.2496 10.2616 30.4137 11.37 30.4199H11.5006C12.6017 30.4147 13.6955 30.2507 14.7497 29.9331C15.1843 29.7795 15.4131 29.3031 15.2595 28.8685C15.1184 28.4663 14.6943 28.2354 14.2795 28.3347ZM21.5623 7.80705V7.77362C21.5612 7.7684 21.5612 7.76213 21.5623 7.75691C19.7277 2.16558 13.7081 -0.880807 8.11572 0.953714C4.88232 2.0141 2.35097 4.55485 1.30103 7.79034C1.30312 7.7966 1.30312 7.80392 1.30103 7.81019C0.359744 10.5756 0.700322 14.2791 2.2183 17.7287C4.2931 22.4466 8.06035 25.7354 11.393 25.7354H11.4901C14.827 25.7354 18.589 22.4561 20.6648 17.7287C22.1692 14.2864 22.5098 10.5766 21.5623 7.80705ZM16.6646 3.77027C14.9805 3.70027 13.1418 4.43784 11.4264 5.85866C9.70787 4.4368 7.87021 3.70654 6.18508 3.77027C9.32132 1.53771 13.5284 1.53771 16.6646 3.77027ZM12.8013 23.764C11.93 24.1725 10.9208 24.1725 10.0495 23.764C7.20368 22.4529 6.62595 17.1813 8.79165 12.2638C9.44355 10.7626 10.3378 9.3783 11.4369 8.16643C12.5338 9.3783 13.4239 10.7626 14.0727 12.2638C16.2238 17.1823 15.6471 22.4529 12.8013 23.764ZM3.72687 17.0685C2.36873 13.9792 2.05845 10.7302 2.87333 8.3315C3.30689 7.07366 4.03715 6.18043 4.9847 5.74269C6.46193 5.0584 8.37376 5.54315 10.2125 7.02665C8.98701 8.37642 7.99035 9.91842 7.26323 11.591C5.80481 14.9278 5.47781 18.3273 6.1527 20.9726C5.16022 19.7941 4.34325 18.4788 3.72687 17.0685ZM19.1228 17.0685C18.5054 18.4799 17.6884 19.7962 16.697 20.9757C17.3646 18.3263 17.0303 14.9101 15.5865 11.591C14.8594 9.91947 13.8648 8.37851 12.6404 7.02665C14.4759 5.54211 16.3878 5.0584 17.866 5.74165C18.8136 6.17938 19.5334 7.07575 19.9774 8.33045C20.8017 10.7124 20.481 13.9792 19.1103 17.0674H19.1228V17.0685Z" fill="white"/>
</svg>
